<svg width="192" height="149" viewBox="0 0 192 149" fill="none" xmlns="http://www.w3.org/2000/svg">
<g opacity="0.1">
<path d="M97.9871 61.5765C96.5148 59.6002 94.351 59.0155 91.8971 58.7239C90.3206 58.7002 88.9226 59.1891 87.584 59.8488C86.2454 60.5084 85.6096 61.4973 84.799 62.5472C84.1631 63.536 83.3525 64.586 82.9509 65.6845C82.4934 67.1858 82.036 68.6871 82.5713 70.2245C82.7497 70.7369 82.8129 71.4813 82.9913 71.9938L82.8166 72.0549C81.9318 70.6397 80.3516 70.0425 79.4668 68.6273C78.582 67.2122 77.173 65.9803 75.0686 65.5664C72.901 64.4081 70.5697 65.0317 68.3574 65.9969C65.0966 67.3288 61.7204 68.8925 59.2849 71.4688C58.4148 72.3479 57.9537 73.2756 57.5521 74.3741C57.3252 75.4116 56.8641 76.3393 56.9867 77.2545C57.0462 77.4253 56.8157 77.8892 56.9346 78.2308L56.8193 78.4628C56.5851 78.353 56.2356 78.4753 56.1166 78.1336C55.4697 77.4017 55.0571 76.7795 54.4102 76.0476C53.5291 75.206 52.5327 74.5963 51.5363 73.9866C48.785 72.8409 46.3237 71.4021 43.5724 70.2563C42.8697 69.9271 42.2265 69.7688 41.4085 69.6716C40.7653 69.5133 39.5457 70.5146 39.1999 71.2104C38.3335 72.6631 38.1103 74.2741 37.3033 75.8976C36.6675 76.8864 36.8496 77.9724 36.6822 79.1807C36.5779 81.1334 36.2395 82.9763 36.3694 85.0387C36.4994 87.101 36.3952 89.0537 36.8747 90.9938C36.9342 91.1647 37.0531 91.5063 37.1126 91.6771C37.4695 92.7021 37.3542 92.934 36.2462 93.1298C34.9634 93.3867 33.7401 93.8145 32.5169 94.2422C29.1965 95.4033 25.8762 96.5643 22.3811 97.7864C21.1579 98.2142 19.9346 98.6419 18.6518 98.8988C17.8933 98.9724 17.488 99.4974 16.789 99.7418C14.7514 100.646 12.4797 101.44 10.3826 102.174C10.0331 102.296 9.74306 102.589 9.38988 102.137C9.3304 101.967 9.15564 102.028 8.98089 102.089C8.16659 102.565 7.70916 104.067 8.00655 104.921C8.24445 105.604 8.59765 106.055 9.01032 106.677C9.12927 107.019 9.30401 106.958 9.65352 106.836C10.5831 106.128 11.5163 105.993 12.6243 105.797C13.7323 105.601 15.0151 105.344 16.0636 104.978C16.4131 104.855 16.7626 104.733 17.2274 104.379C17.458 103.915 18.2165 103.842 18.6254 103.89C19.5029 104.158 20.3172 103.682 21.0162 103.437C23.6375 102.521 26.3741 101.372 28.8765 100.114C31.9031 98.6725 35.0523 98.1462 38.1384 96.8754C38.4879 96.7532 38.7221 96.8629 38.7816 97.0337C38.9006 97.3754 39.1943 97.6559 39.4285 97.7656C39.488 97.9365 39.6627 97.8754 39.5475 98.1073C38.9116 99.0961 39.7927 99.9377 40.2054 100.56C41.5623 102.768 42.8598 104.805 44.332 106.782C45.1573 108.026 46.388 108.746 47.7339 109.233C49.7825 110.05 51.9464 110.634 54.1102 111.219C54.7535 111.377 55.103 111.255 55.4488 110.559C56.1963 108.765 57.3527 107.019 58.3344 105.335C58.6802 104.639 58.8513 104.004 59.1971 103.308C59.714 101.978 60.3499 100.989 61.0416 99.5975C61.3874 98.9018 61.908 98.1449 61.6106 97.2907C61.5511 97.1199 61.7259 97.0588 61.5511 97.1199C60.7889 96.62 60.9005 95.8144 61.0121 95.0089C61.3058 95.2895 61.5401 95.3992 61.659 95.7408C63.016 97.949 65.1204 98.3629 67.5706 98.081C68.5038 97.9463 69.6713 97.9213 70.6046 97.7866C74.0475 97.5408 77.431 97.1242 80.8145 96.7075C81.7477 96.5728 82.7368 96.0353 83.6105 95.7298C83.7853 95.6687 84.0753 95.3757 84.0158 95.2049C83.9564 95.034 83.8969 94.8632 84.1311 94.9729C85.1238 95.009 85.2354 94.2035 85.6407 93.6786C87.3178 91.176 88.4148 89.2594 88.4558 86.5624C91.3892 88.7942 94.7801 89.5247 98.5057 87.8387C102.291 86.3235 104.258 83.5279 105.11 79.7809C105.875 80.8544 106.292 82.0502 106.823 83.014C107.002 83.5265 107.18 84.039 107.708 84.4292C108.296 84.9903 109.114 85.0875 110.047 84.9528C113.601 83.9015 117.275 83.1918 120.77 81.9697C121.469 81.7253 121.934 81.3711 122.458 81.1878C123.272 80.7115 124.44 80.6865 124.845 80.1615C125.54 79.3435 126.585 78.4033 126.169 77.2075C126.109 77.0367 126.05 76.8659 125.931 76.5242C126.991 77.8783 127.875 79.2935 129.05 80.4157C129.991 81.4281 131.396 82.0864 132.512 83.0377C132.746 83.1475 132.98 83.2572 133.274 83.5377C134.159 84.9529 136.144 85.0251 138.01 84.7557C139.353 84.6696 140.398 83.7294 141.268 82.8503C141.673 82.3253 141.669 81.7517 141.666 81.1782C141.186 79.238 140.822 77.0659 140.342 75.1258C139.982 73.5273 139.447 71.9898 139.261 70.3302C139.198 69.5858 139.194 69.0123 139.131 68.2679C139.12 66.5471 139.109 64.8264 139.388 62.8127C140.213 64.057 141.038 65.3014 141.979 66.3138C143.86 68.3387 146.087 69.6678 148.894 70.4108C149.538 70.5691 149.716 71.0816 150.359 71.2399C152.229 71.5441 154.155 71.4455 156.081 71.3469C158.532 71.065 161.101 71.1247 163.607 70.44C165.005 69.9512 166.466 70.2067 167.804 69.547C168.444 69.1318 169.143 68.8874 169.902 68.8138C170.485 68.8013 170.712 67.7638 170.708 67.1903C170.407 65.7626 169.177 65.0432 168.586 63.9085C166.991 61.017 164.407 58.663 163.277 55.4174C163.098 54.9049 162.63 54.6855 162.277 54.2341C161.924 53.7827 161.805 53.4411 162.619 52.9647C163.493 52.6592 164.426 52.5245 165.121 51.7065C165.586 51.3524 166.17 51.3399 166.694 51.1565C167.917 50.7288 169.085 50.7038 170.133 50.3372C172.87 49.1886 175.547 47.8693 178.462 47.2332C180.269 46.793 181.254 45.6819 182.415 44.5098C182.589 44.4487 182.705 44.2168 182.82 43.9848C183.225 43.4599 183.222 42.8863 182.463 42.9599C181.002 42.7043 179.541 42.4488 178.024 42.596C177.44 42.6085 177.269 43.2432 176.745 43.4265C173.484 44.7584 170.279 45.6875 167.077 47.1901C166.029 47.5568 164.746 47.8137 163.698 48.1803C162.649 48.547 161.716 48.6817 160.727 49.2191C159.448 50.0496 158.804 49.8913 158.098 48.9886C155.745 46.1707 153.042 43.475 150.979 40.3641C150.566 39.7419 150.038 39.3517 149.51 38.9614C148.041 37.5587 146.748 36.0949 145.569 34.3992C145.216 33.9478 144.688 33.5576 144.22 33.3381C143.692 32.9479 143.576 33.1798 143.346 33.6437C142.141 36.9393 140.293 40.0766 139.731 43.5305C139.675 43.9333 139.62 44.336 138.857 43.8361C137.333 42.8361 135.753 42.2389 133.942 42.1056C133.358 42.1181 133.704 41.4223 133.82 41.1904C134.165 40.4946 134.337 39.8599 134.273 39.1155C134.385 38.31 134.088 37.4559 133.79 36.6018C133.671 36.2601 133.612 36.0893 133.028 36.1018C132.444 36.1143 131.801 35.956 131.277 36.1393C130.753 36.3226 130.403 36.4448 130.641 37.1281C130.938 37.9823 131.061 38.8975 131.184 39.8127C131.303 40.1543 131.247 40.5571 131.191 40.9598C131.198 42.107 130.678 42.8639 129.28 43.3527C126.015 44.111 123.635 46.2845 121.609 48.9093C121.088 49.6662 120.508 50.2523 120.222 51.1189C119.991 51.5827 119.991 51.5827 119.523 51.3633C117.471 49.9731 115.132 49.4495 112.734 48.7551C112.325 48.7065 111.801 48.8898 111.392 48.8412C110.633 48.9148 109.64 48.8787 108.941 49.1231C107.484 49.4412 106.32 50.0397 104.863 50.3578C103.23 50.7369 101.717 51.4577 100.319 51.9465C98.6867 52.3257 98.2851 53.4242 97.7682 54.7547C97.426 56.024 97.2586 57.2323 97.5002 58.4892C97.6192 58.8308 97.7381 59.1725 97.8571 59.5141C97.8607 60.0877 97.7491 60.8932 97.9871 61.5765ZM146.074 40.3544C145.959 40.5863 146.019 40.7571 145.903 40.9891C145.859 43.1125 145.58 45.1263 145.71 47.1887C145.665 49.3121 145.735 51.2037 146.04 53.205C146.159 53.5466 146.572 54.1688 146.107 54.5229C145.642 54.8771 146.051 54.9257 146.17 55.2673C146.23 55.4381 146.404 55.377 146.523 55.7187C146.705 56.8047 147.412 57.7074 148.118 58.6102C148.583 58.256 148.464 57.9144 147.995 57.6949C147.761 57.5852 147.702 57.4144 147.642 57.2436C146.639 55.4868 146.568 53.5952 146.323 51.7648C145.959 49.5927 146.119 47.2373 146.163 45.1138C146.208 42.9903 146.253 40.8668 147.175 39.0114C147.409 39.1211 147.469 39.2919 147.354 39.5239C147.067 40.3905 146.781 41.2571 146.729 42.2334C146.617 43.0389 146.914 43.893 146.803 44.6985C146.702 47.2248 147.36 49.6774 147.609 52.0814C147.914 54.0827 148.858 55.6687 149.802 57.2547C150.215 57.8769 150.568 58.3283 151.156 58.8893C152.565 60.1212 154.32 60.6573 156.075 61.1934C158.707 61.9975 161.51 62.1669 164.314 62.3364C165.132 62.4336 165.95 62.5308 166.481 63.4946C165.838 63.3363 165.726 64.1418 165.143 64.1543C163.975 64.1793 162.867 64.3751 161.875 64.339C160.064 64.2057 158.134 63.7307 156.264 63.4266C154.394 63.1224 152.579 62.4155 151.055 61.4156C150.234 60.7448 149.471 60.2448 148.65 59.574C148.713 60.3184 149.007 60.5989 149.36 61.0503C150.884 62.0502 152.293 63.2821 154.048 63.8182C155.334 64.1348 156.796 64.3904 158.082 64.707C160.889 65.4501 163.748 65.2168 166.608 64.9834C167.191 64.9709 167.366 64.9098 167.37 65.4834C167.08 65.7764 166.846 65.6667 166.496 65.7889C161.365 66.8166 156.171 67.0999 151.14 65.6014C148.742 64.907 147.099 63.5654 145.861 61.6989C144.623 59.8323 144.025 57.5505 143.66 55.3784C143.359 53.9507 143.408 52.4008 143.69 50.9606C143.854 49.1788 144.427 47.4456 144.765 45.6026C145.107 44.3333 145.215 42.9542 145.732 41.6237C145.784 40.6474 145.9 40.4155 146.074 40.3544C146.015 40.1836 145.955 40.0127 146.13 39.9516C146.242 39.1461 146.413 38.5114 146.525 37.7059C147.052 38.0962 147.171 38.4378 146.707 38.792C146.417 39.085 146.361 39.4878 146.13 39.9516C146.19 40.1224 146.015 40.1836 146.074 40.3544ZM115.199 50.7675C115.199 50.7675 115.139 50.5967 115.199 50.7675C115.139 50.5967 115.139 50.5967 115.199 50.7675C117.009 50.9008 118.24 51.6202 118.66 53.3896C118.839 53.902 118.608 54.3659 118.552 54.7686C118.56 55.9158 117.983 57.0754 117.816 58.2837C117.396 56.5144 116.392 54.7575 115.972 52.9882C115.849 52.073 115.611 51.3897 115.199 50.7675ZM58.6698 93.9118C59.4878 94.009 59.6662 94.5215 60.1942 94.9117C60.7221 95.302 60.0268 96.12 60.6142 96.6811C59.0935 96.2547 58.9746 95.913 58.9077 94.5951C58.614 94.3145 58.7293 94.0826 58.6698 93.9118C58.0303 94.327 58.4429 94.9492 58.2719 95.5839C57.6287 95.4256 57.216 94.8034 56.8628 94.352C56.5096 93.9007 55.7511 93.9743 55.5727 93.4618C54.9816 92.3272 53.9815 91.1439 53.6805 89.7162C53.502 89.2037 53.4984 88.6302 53.5542 88.2274C53.7179 86.4456 53.7663 84.8957 54.1643 83.2236C54.6217 81.7223 55.0197 80.0502 55.2429 78.4391C56.4735 79.1585 56.9456 79.9515 56.4287 81.282C56.3135 81.5139 56.2576 81.9167 56.2018 82.3195C56.0308 82.9541 56.0345 83.5277 54.9823 83.3208C54.748 83.2111 54.5733 83.2722 54.6327 83.443C54.5175 83.6749 54.6922 83.6138 54.9265 83.7235C55.9192 83.7596 55.8634 84.1624 55.7518 84.9679C55.6365 85.1998 55.696 85.3707 55.7555 85.5415C55.9339 86.0539 55.6439 86.347 55.1196 86.5303C54.7701 86.6525 54.5359 86.5428 54.3053 87.0066C54.0226 88.4468 53.9147 89.8259 54.9148 91.0092C55.2085 91.2897 55.268 91.4605 55.558 91.1675C56.1975 90.7523 56.4913 91.0328 56.6697 91.5453C56.7292 91.7161 57.0229 91.9966 57.0823 92.1674C57.495 92.7896 58.3724 93.0577 58.6698 93.9118ZM54.5493 106.85C54.7798 106.386 55.1851 105.861 55.3562 105.226C55.9884 103.664 56.6801 102.272 57.6654 101.161C58.2455 100.575 58.5318 99.7086 58.8777 99.0129C58.9929 98.7809 59.1082 98.549 58.874 98.4393C58.6398 98.3296 58.5245 98.5615 58.3497 98.6226C56.8959 99.5142 55.97 100.796 55.0441 102.078C53.4787 103.775 52.3817 105.692 50.8163 107.389C50.5263 107.682 50.5857 107.853 51.0542 108.072C51.9316 108.34 52.6938 108.84 53.6865 108.876C53.456 109.34 53.3407 109.572 53.2849 109.975C53.1696 110.207 53.0544 110.438 52.8201 110.329C51.9427 110.061 51.0652 109.793 50.1878 109.525C50.2436 109.122 50.5931 109 50.4741 108.658C50.2994 108.719 50.1246 108.78 49.9499 108.841C49.7788 109.476 49.3103 109.257 48.9013 109.208C47.9644 108.769 47.4923 107.976 46.7301 107.476C46.4959 107.366 46.7859 107.073 46.9607 107.012C47.366 106.487 47.8308 106.133 48.2955 105.779C48.4703 105.718 48.4108 105.547 48.3513 105.376C48.2919 105.205 47.9424 105.328 48.0018 105.499C47.5371 105.853 46.957 106.439 46.4922 106.793C46.2022 107.086 46.0274 107.147 45.7337 106.866C44.4436 105.976 43.5588 104.561 42.7335 103.317C42.6145 102.975 42.4956 102.633 43.2541 102.56C43.1946 102.389 43.2504 101.986 42.7856 102.34C42.4361 102.463 42.2019 102.353 42.0829 102.011C41.6071 100.645 41.1313 99.2781 40.4807 97.9726C40.3023 97.4601 40.477 97.399 41.0013 97.2157C41.5256 97.0324 42.0498 96.849 42.5741 96.6657C42.7488 96.6046 42.9236 96.5435 42.8046 96.2019C42.7452 96.031 42.5704 96.0922 42.3956 96.1533C41.8714 96.3366 41.1129 96.4102 40.6481 96.7643C40.2986 96.8865 40.2986 96.8865 40.0049 96.606C38.8859 95.0811 38.8154 93.1895 37.8116 91.4327C37.6926 91.0911 37.8674 91.03 38.1016 91.1397C39.0349 91.005 40.0834 90.6383 41.0167 90.5036C41.1914 90.4425 41.4256 90.5522 41.4814 90.1495C41.3625 89.8078 41.2472 90.0398 41.013 89.93C40.4887 90.1134 39.905 90.1259 39.3807 90.3092C37.7484 90.6883 37.7484 90.6883 37.6221 89.1995C37.5627 89.0287 37.6779 88.7968 37.6185 88.6259C37.5553 87.8815 37.9048 87.7593 38.4885 87.7468C39.8308 87.6607 40.9983 87.6357 42.3405 87.5496C42.5152 87.4885 42.7495 87.5982 42.69 87.4274C42.8053 87.1955 42.571 87.0858 42.3963 87.1469C42.2216 87.208 41.9873 87.0983 41.8126 87.1594C40.4703 87.2455 39.1281 87.3316 38.0201 87.5274C37.8453 87.5885 37.4958 87.7107 37.5516 87.308C37.548 86.7344 37.31 86.0511 37.4811 85.4164C37.7675 84.5498 37.8791 83.7443 37.9312 82.768C37.987 82.3652 38.1617 82.3041 38.5707 82.3527C39.5635 82.3888 40.5562 82.4249 41.7237 82.4C42.8911 82.375 44.1181 82.5208 45.345 82.6666C45.5793 82.7763 46.0477 82.9958 46.163 82.7638C46.2188 82.3611 45.6351 82.3736 45.4008 82.2639C45.1666 82.1542 44.9919 82.2153 44.7576 82.1055C43.1217 81.9111 41.5452 81.8875 39.9093 81.693C39.3256 81.7055 38.7976 81.3153 38.1581 81.7305C38.3255 80.5223 38.3181 79.3751 38.4855 78.1669C38.5413 77.7641 38.5971 77.3614 38.6529 76.9586C38.7087 76.5559 38.824 76.3239 39.2925 76.5434C39.9952 76.8725 40.6384 77.0308 41.1068 77.2503C41.3411 77.36 41.5753 77.4697 41.6906 77.2378C41.8058 77.0059 41.5716 76.8961 41.3374 76.7864C40.6942 76.6281 40.1662 76.2378 39.3483 76.1406C38.9393 76.092 38.6456 75.8115 38.9356 75.5184C39.3409 74.9935 39.3372 74.4199 39.1588 73.9074C38.8614 73.0533 39.501 72.6381 39.672 72.0034C40.0178 71.3076 41.0664 70.941 41.8844 71.0382C43.9293 71.2812 45.4536 72.2812 47.0932 73.0492C48.4986 73.7075 50.2535 74.2436 51.4283 75.3657C52.3095 76.2073 53.3059 76.817 54.187 77.6586L54.2465 77.8295C54.0717 77.8906 54.0717 77.8906 54.0122 77.7197C53.4285 77.7322 53.0753 77.2809 52.2573 77.1837C52.4952 77.8669 53.1979 78.1961 53.7817 78.1836C54.3654 78.1711 54.4844 78.5127 54.4286 78.9155C54.2612 80.1238 54.2612 80.1238 52.9747 79.8071C52.7405 79.6974 52.5063 79.5877 52.3315 79.6488C51.0451 79.3321 49.6992 78.8447 48.1822 78.9919C48.0074 79.053 47.7732 78.9432 47.8327 79.1141C47.7174 79.346 48.1264 79.3946 48.3011 79.3335C48.7101 79.3821 49.2939 79.3696 49.5281 79.4793C50.7587 80.1987 52.3352 80.2224 53.4469 80.6001C54.0901 80.7584 53.9748 80.9904 53.9785 81.5639C53.64 83.4069 52.7178 85.2623 52.6136 87.215C52.5578 87.6177 52.383 87.6788 52.2082 87.7399C51.4498 87.8135 50.7507 88.058 49.877 88.3635C49.7022 88.4246 49.4085 88.1441 49.3527 88.5468C49.4717 88.8885 49.8212 88.7662 49.9959 88.7051C50.6949 88.4607 51.4534 88.3871 51.9777 88.2038C52.6767 87.9594 52.5614 88.1913 52.7399 88.7038C52.803 89.4482 52.9257 90.3634 53.1636 91.0467C53.342 91.5591 53.6357 91.8397 52.8214 92.316C53.4051 92.3035 53.6394 92.4133 53.9926 92.8646C54.5242 93.8284 55.2306 94.7312 56.0522 95.402C56.6396 95.963 56.4091 96.4269 55.9443 96.781C55.829 97.013 55.4795 97.1352 55.3047 97.1963C55.1895 97.4282 54.84 97.5504 54.9589 97.8921C55.7732 97.4157 56.4127 97.0005 56.8738 96.0728C57.4018 96.463 57.6397 97.1463 58.6324 97.1824C59.2162 97.1699 59.7441 97.5602 60.3873 97.7185C61.0305 97.8768 61.1495 98.2185 60.9784 98.8531C60.9226 99.2559 60.6326 99.5489 60.5768 99.9517C60.1157 100.879 59.4798 101.868 59.0782 102.967C58.2786 105.737 56.1926 108.191 54.984 110.913C54.7535 111.377 54.4597 111.097 54.0508 111.048C53.6418 111 53.7571 110.768 53.8723 110.536C54.3334 109.608 54.7945 108.68 55.0809 107.814C55.1962 107.582 55.3114 107.35 55.0772 107.24C54.8393 106.557 54.724 106.789 54.5493 106.85C54.5493 106.85 54.6087 107.021 54.5493 106.85C54.3745 106.911 54.5493 106.85 54.5493 106.85ZM58.1051 87.7858C57.9862 87.4441 57.8077 86.9317 57.8635 86.5289C58.202 84.686 57.8973 82.6847 58.2357 80.8418C58.4031 79.6335 58.221 78.5475 57.9794 77.2906C57.7937 75.631 58.4259 74.0686 59.1175 72.677C59.2328 72.4451 59.4075 72.384 59.5823 72.3229C60.9766 71.2604 62.6052 70.3077 63.9996 69.2453C65.8587 67.8287 68.1305 67.0344 70.3428 66.0691C70.8671 65.8858 71.5661 65.6414 72.1499 65.6289C73.6074 65.3109 74.6632 66.0914 76.0092 66.5789C77.4145 67.2372 78.7047 68.1274 79.5895 69.5426C79.9426 69.9939 79.5968 70.6897 80.0653 70.9091C81.2364 71.4577 81.5933 72.4827 82.2402 73.2146C83.1213 74.0562 83.4782 75.0811 83.4855 76.2283C83.4334 77.2046 83.7902 78.2295 84.4371 78.9614C85.4967 80.3155 85.6825 81.9751 86.2178 83.5125C87.1657 85.6721 87.0057 88.0275 87.0204 90.3218C86.9646 90.7246 87.143 91.2371 86.853 91.5301C85.7523 92.8731 84.5922 94.0452 83.4321 95.2173C82.6773 95.8645 81.863 96.3409 80.9298 96.4756C79.4723 96.7936 78.1858 96.477 76.7283 96.795C73.9286 97.1991 71.0099 97.2616 68.2696 97.8366C65.7041 98.3504 63.8303 97.4727 62.3581 95.4964C60.2984 92.9591 59.3468 90.2259 58.1051 87.7858ZM122.611 68.6789C122.024 68.1178 122.136 67.3123 121.548 66.7512C120.782 65.6777 120.132 64.3722 119.541 63.2376C118.652 61.2488 119.281 59.1128 119.325 56.9893C119.322 56.4158 119.493 55.7811 119.664 55.1464C120.872 52.4244 122.256 49.6412 124.342 47.1872C125.152 46.1373 126.313 44.9651 127.893 45.5623L128.067 45.5012C129.469 45.5859 130.399 44.8776 131.563 44.2791C132.901 43.6194 134.299 43.1305 135.82 43.5569C136.229 43.6055 136.463 43.7152 136.931 43.9347C137.809 44.2027 138.753 45.7887 138.407 46.4845C137.831 47.6442 137.664 48.8524 137.496 50.0607C137.05 53.2827 136.838 56.6144 137.968 59.8601C138.146 60.3725 138.15 60.9461 138.269 61.2877C138.276 62.4349 138.049 63.4723 138.231 64.5584C138.477 66.3888 137.963 68.2929 137.974 70.0136C136.918 69.2331 135.915 67.4762 135.673 66.2194C135.554 65.8777 135.785 65.4139 135.201 65.4264C134.617 65.4389 134.97 65.8902 134.915 66.293C135.216 67.7207 135.926 69.197 136.461 70.7344C137.175 72.7842 139.227 74.1744 139.067 76.5298C139.126 76.7007 139.126 76.7007 139.186 76.8715C139.721 78.4089 140.666 79.9949 140.677 81.7156C140.74 82.46 140.509 82.9239 139.635 83.2294C137.654 83.7308 135.609 83.4877 133.62 82.8419C130.05 81.5989 127.931 78.8908 126.162 76.0604C125.868 75.7798 125.864 75.2063 125.745 74.8646C125.559 73.205 124.79 71.5579 124.255 70.0205C123.485 68.3734 123.24 66.5429 123.344 64.5903C123.393 63.0404 123.091 61.6127 122.556 60.0753C122.497 59.9044 122.437 59.7336 122.203 59.6239C122.028 59.685 121.913 59.9169 121.913 59.9169C122.21 60.7711 121.749 61.6988 122.047 62.5529C122.407 64.1514 122.184 65.7624 122.545 67.3609C122.548 67.9345 122.727 68.447 122.611 68.6789ZM89.4505 59.5793C90.8522 59.6641 92.135 59.4071 93.5961 59.6627C95.2916 60.028 96.3511 61.382 97.6412 62.2723C98.4629 62.9431 98.935 63.7361 99.1171 64.8221C99.2992 65.9081 99.5966 66.7623 99.9535 67.7872C100.426 68.5802 101.073 69.3121 101.195 70.2273C101.615 71.9967 102.5 73.4119 103.095 75.1201C103.333 75.8034 103.221 76.6089 103.634 77.2311C104.165 78.1949 104.288 79.1101 103.886 80.2086C103.139 82.003 102.86 84.0167 100.766 85.3236C99.6622 86.093 98.6173 87.0332 97.2788 87.6929C94.5422 88.8414 90.6271 88.2942 88.5711 86.3304C88.0432 85.9402 87.6305 85.318 87.6863 84.9152C87.7421 84.5125 87.7979 84.1097 87.5637 84C86.7978 82.9265 86.3815 81.7307 85.6157 80.6572C84.6156 79.4739 84.255 77.8754 84.1882 76.5574C84.0619 75.0686 83.4113 73.7632 83.285 72.2744C83.1624 71.3591 82.9803 70.2731 82.7982 69.187C82.5603 68.5038 83.1998 68.0885 83.1367 67.3441C83.2409 65.3915 84.3973 63.6457 85.8475 62.1806C86.3123 61.8264 86.8365 61.6431 87.2419 61.1181C88.1714 60.4098 88.811 59.9946 89.4505 59.5793ZM145 36.706C145.822 37.3768 145.885 38.1212 145.599 38.9878C144.509 42.0515 144.063 45.2735 143.382 48.3858C142.984 50.0579 142.646 51.9009 142.891 53.7313C143.196 55.7326 143.909 57.7824 144.564 59.6615C145.396 62.053 147.158 63.7362 149.616 64.6015C152.836 65.9667 156.517 66.4042 160.134 66.0972C162.469 66.0472 164.86 65.5945 167.251 65.1418C167.95 64.8973 167.894 65.3001 168.072 65.8126C168.251 66.325 167.842 66.2764 167.492 66.3986C166.968 66.582 166.21 66.6556 165.626 66.6681C165.042 66.6806 164.458 66.693 163.875 66.7055C161.369 67.3902 158.859 67.5013 156.409 67.7832C154.542 68.0527 152.616 68.1512 150.977 67.3832C148.285 66.4083 145.883 65.1403 144.467 62.7613C143.522 61.1753 142.463 59.8212 141.983 57.881C141.623 56.2825 141.028 54.5743 141.251 52.9633C141.355 51.0106 141.46 49.058 141.913 46.9831C142.311 45.311 142.066 43.4806 142.873 41.857C143.914 40.3433 144.253 38.5003 145 36.706ZM143.528 34.7297C144.409 35.5713 144.532 36.4866 144.071 37.4143C143.955 37.6462 144.015 37.817 143.84 37.8781C143.04 40.6488 141.538 43.0903 141.382 46.0193C141.17 49.351 140.374 52.6952 140.92 55.9534C141.708 60.4684 143.66 64.3848 147.82 66.7624C148.816 67.3721 150.047 68.0915 151.274 68.2373C154.137 68.5776 157.171 68.2832 160.205 67.9888C161.897 67.7805 163.469 67.2305 165.221 67.193C166.039 67.2902 166.797 67.2166 167.671 66.9111C168.37 66.6667 168.548 67.1791 168.667 67.5208C168.846 68.0333 168.262 68.0458 168.087 68.1069C167.912 68.168 167.738 68.2291 167.563 68.2902C165.871 68.4985 164.12 68.536 162.607 69.2568C162.432 69.3179 162.082 69.4401 161.908 69.5012C158.933 69.9664 155.899 70.2608 152.917 69.5789C152.04 69.3109 151.047 69.2748 150.229 69.1776C148.359 68.8734 147.125 67.5804 145.485 66.8124C144.254 66.093 143.024 65.3736 142.433 64.239C141.901 63.2751 141.544 62.2502 140.838 61.3475C140.778 61.1767 140.778 61.1767 140.719 61.0058C140.184 59.4684 140.057 57.9796 140.106 56.4297C140.043 55.6853 140.329 54.8187 140.091 54.1354C139.786 52.1342 140.125 50.2912 140.229 48.3386C140.508 46.3248 140.728 44.1402 141.241 42.2362C141.866 39.5266 142.784 37.0976 143.528 34.7297ZM37.5473 95.7408C36.8483 95.9852 35.9745 96.2907 35.335 96.706C34.6955 97.1212 33.9964 97.3656 33.4722 97.549C31.2562 97.9406 29.2781 99.0155 27.181 99.7488C25.0245 100.311 23.1654 101.728 20.8341 102.351C18.2128 103.268 15.6473 103.782 13.0854 104.869C12.0369 105.236 10.9289 105.432 9.8804 105.798C9.00663 106.104 9.11823 105.298 8.76504 104.847C8.58661 104.335 9.17035 104.322 9.3451 104.261C10.9774 103.882 12.7249 103.271 14.2977 102.721C14.6472 102.599 14.822 102.537 14.703 102.196C14.584 101.854 14.2345 101.976 14.0598 102.038C12.2564 103.051 10.39 103.321 8.46766 103.993C8.28923 103.48 8.81349 103.297 9.163 103.175C9.92149 103.101 10.7953 102.796 11.4943 102.551C14.0561 101.464 16.6216 100.95 19.1834 99.8627C21.7453 98.7752 24.4261 98.0295 27.0474 97.1129C27.2221 97.0518 27.3374 96.8198 27.6311 97.1004C27.2816 97.2226 26.9321 97.3448 27.051 97.6864C27.1105 97.8573 27.3448 97.967 27.6348 97.6739C28.9139 96.8434 30.4309 96.6962 31.7694 96.0366C33.108 95.3769 34.2718 94.7783 35.6698 94.2895C35.8445 94.2284 36.4878 94.3867 36.0751 93.7645C36.0751 93.7645 37.4136 93.1048 37.4731 93.2756C37.7074 93.3854 37.6589 94.9353 37.4842 94.9964C36.5546 95.7046 37.4878 95.5699 37.5473 95.7408ZM165.009 61.5184C164.191 61.4212 163.373 61.3239 162.555 61.2267C159.343 61.0087 156.246 60.5587 153.375 59.0713C152.673 58.7421 151.911 58.2422 151.264 57.5102C149.732 55.3632 148.375 53.155 148.182 50.3482C148.056 48.8594 147.52 47.322 147.569 45.7721C147.613 43.6486 147.075 41.5376 148.053 39.2795C148.58 39.6697 148.818 40.353 148.882 41.0974C149.071 43.3306 149.32 45.7346 149.16 48.09C149.056 50.0427 149.71 51.9217 150.714 53.6785C152.602 56.8506 155.707 58.4477 159.506 59.2268C160.559 59.4338 161.667 59.238 162.834 59.213C163.243 59.2616 163.593 59.1394 163.712 59.481C164.184 60.274 164.537 60.7254 165.009 61.5184ZM105.018 65.4415C104.546 64.6485 105.007 63.7208 105.352 63.025C105.873 62.2681 106.334 61.3404 107.089 60.6932C108.193 59.9238 109.011 60.0211 109.428 61.2168C109.666 61.9001 109.963 62.7542 110.491 63.1445C111.138 63.8764 110.907 64.3402 110.561 65.036C110.216 65.7318 110.044 66.3665 109.873 67.0012C109.933 67.172 109.818 67.4039 109.992 67.3428C110.227 67.4525 110.342 67.2206 110.282 67.0498C110.275 65.9026 110.803 66.2929 111.506 66.622C111.974 66.8415 112.443 67.0609 112.967 66.8776C113.376 66.9262 113.9 66.7429 114.25 66.6207C114.774 66.4373 115.068 66.7179 115.071 67.2914C114.96 68.097 115.023 68.8414 114.911 69.6469C114.688 71.2579 114.688 71.2579 113.052 71.0634C112.818 70.9537 112.353 71.3079 112.234 70.9662C112.052 69.8802 110.881 69.3316 110.349 68.3678C109.758 67.2331 108.821 66.7942 107.479 66.8803C106.605 67.1859 105.375 66.4665 105.018 65.4415ZM111.683 76.1409C111.274 76.0923 110.981 75.8117 110.746 75.702C110.044 75.3729 109.631 74.7507 108.757 75.0562C107.709 75.4229 106.426 75.6798 105.497 76.3881C105.206 76.6811 105.088 76.3395 105.028 76.1686C104.147 75.327 104.08 74.009 103.548 73.0452L103.489 72.8744C103.66 72.2397 105.932 71.4453 106.226 71.7259C106.754 72.1161 107.103 71.9939 107.687 71.9814C108.445 71.9078 109.319 71.6023 110.137 71.6995C110.546 71.7481 111.014 71.9675 111.07 71.5648C111.126 71.162 110.427 71.4065 110.193 71.2967C109.315 71.0287 108.386 71.737 107.568 71.6398C106.809 71.7134 106.341 71.4939 106.337 70.9204C106.155 69.8343 106.148 68.6872 106.2 67.7108C106.315 67.4789 106.315 67.4789 106.49 67.4178C107.074 67.4053 107.892 67.5025 108.475 67.49C109.234 67.4164 109.528 67.697 109.94 68.3191C110.353 68.9413 110.825 69.7343 111.587 70.2343C111.94 70.6857 112.059 71.0273 112.063 71.6009C111.836 72.6383 111.434 73.7369 111.676 74.9937C111.561 75.2257 111.68 75.5673 111.683 76.1409ZM120.818 80.4198C119.48 81.0795 118.257 81.5072 116.859 81.9961C116.509 82.1183 116.16 82.2405 116.215 81.8378C116.386 81.2031 115.858 80.8128 116.379 80.0559C116.494 79.824 115.903 78.6893 115.494 78.6407C114.561 78.7754 114.557 78.2019 114.379 77.6894C114.26 77.3478 114.082 76.8353 113.788 76.5547C113.494 76.2742 113.669 76.2131 113.784 75.9812C114.535 74.7604 115.759 74.3327 116.922 73.7341C117.272 73.6119 117.796 73.4286 118.034 74.1119C118.272 74.7952 119.268 75.4048 120.202 75.2701C120.376 75.209 120.611 75.3187 120.845 75.4285C122.6 75.9645 123.076 77.3311 123.726 78.6366C123.845 78.9782 123.73 79.2102 123.38 79.3324C122.157 79.7601 121.053 80.5295 119.763 79.6393C119.763 79.6393 119.763 79.6393 119.528 79.5296C118.361 79.5546 117.889 78.7616 117.417 77.9686C117.238 77.4561 116.361 77.188 115.896 77.5422C115.721 77.6033 115.546 77.6644 115.606 77.8352C115.665 78.0061 115.84 77.9449 116.015 77.8838C116.539 77.7005 117.008 77.9199 117.186 78.4324C117.718 79.3962 118.483 80.4698 120 80.3226C120.35 80.2004 120.759 80.249 120.818 80.4198ZM150.112 41.8168C150.7 42.3779 151.112 43.0001 151.7 43.5611C151.759 43.732 151.819 43.9028 151.819 43.9028C151.648 44.5375 151.711 45.2819 151.714 45.8554C151.908 48.6622 152.45 51.3468 154.506 53.3105C155.153 54.0424 155.975 54.7132 156.912 55.1521C158.551 55.9201 160.596 56.1631 162.351 56.6992C162.76 56.7478 163.466 57.6506 163.411 58.0533C163.295 58.2852 163.121 58.3464 163.061 58.1755C159.674 58.0186 156.461 57.8005 153.818 55.2757C151.996 53.4216 150.465 51.2745 150.331 48.6386C150.261 46.747 150.19 44.8555 150.12 42.9639C150.06 42.7931 150.116 42.3904 150.112 41.8168ZM102.148 54.9477C102.847 54.7033 104.721 55.581 104.899 56.0935C104.959 56.2643 104.959 56.2643 104.784 56.3254C104.263 57.0823 105.085 57.7531 105.319 57.8628C106.431 58.2406 106.438 59.3878 107.201 59.8877C107.435 59.9974 107.32 60.2294 107.145 60.2905C106.156 60.8279 105.579 61.9876 104.943 62.9764C104.653 63.2694 104.479 63.3306 104.185 63.05C103.717 62.8306 103.189 62.4403 102.954 62.3306C101.902 62.1237 100.965 61.6848 101.017 60.7085C101.069 59.7322 100.601 59.5127 99.783 59.4155C99.1993 59.428 98.9651 59.3183 99.3109 58.6225C99.6009 58.3295 99.3072 58.0489 99.0135 57.7684C98.7793 57.6587 98.6603 57.317 99.0098 57.1948C100.114 56.4254 101.218 55.656 102.148 54.9477ZM161.764 56.1382C155.335 55.1285 152.045 51.8717 152.172 44.3541C152.347 44.293 152.406 44.4639 152.466 44.6347C153.759 46.0985 155.053 47.5623 156.172 49.0872C156.878 49.9899 157.47 51.1246 158.291 51.7954C160.05 52.905 161.169 54.4299 161.764 56.1382ZM159.336 50.8551C160.794 50.5371 162.013 49.5358 163.705 49.3275C165.337 48.9483 167.029 48.74 168.542 48.0192C168.892 47.897 169.475 47.8845 169.531 47.4818C169.702 46.8471 170.111 46.8957 170.695 46.8832C171.045 46.761 171.279 46.8707 171.628 46.7485C173.257 45.7958 175.064 45.3556 176.577 44.6348C177.8 44.207 179.024 43.7793 180.485 44.0348C178.503 44.5362 176.934 45.6597 175.068 45.9291C174.543 46.1124 173.96 46.1249 173.554 46.6499C173.38 46.711 173.264 46.9429 173.324 47.1138C173.383 47.2846 173.558 47.2235 173.673 46.9916C174.138 46.6374 174.837 46.393 175.421 46.3805C177.228 45.9402 178.741 45.2195 180.254 44.4987C180.779 44.3154 181.303 44.132 181.831 44.5223C180.901 45.2306 180.087 45.7069 178.979 45.9027C178.046 46.0375 177.347 46.2819 176.592 46.9291C175.313 47.7596 173.74 48.3095 172.227 49.0303C170.539 49.8122 168.795 50.9968 166.69 50.583C166.281 50.5344 165.932 50.6566 165.582 50.7788C167.33 50.1677 169.078 49.5567 170.706 48.6039C170.881 48.5428 171.29 48.5914 171.171 48.2498C171.052 47.9082 170.702 48.0304 170.528 48.0915C170.353 48.1526 170.178 48.2137 170.178 48.2137C168.141 49.1178 166.218 49.79 164.062 50.3524C163.887 50.4135 163.363 50.5968 163.363 50.5968C163.192 51.2315 162.608 51.244 162.258 51.3662C161.909 51.4885 161.559 51.6107 161.21 51.7329C160.57 52.1481 159.987 52.1606 159.689 51.3065C160.329 50.8913 161.087 50.8177 161.727 50.4024C160.968 50.476 160.154 50.9524 159.336 50.8551ZM108.777 59.9113C110.004 60.0572 110.525 59.3003 110.811 58.4337C110.867 58.0309 111.157 57.7379 111.447 57.4448C111.562 57.2129 111.677 56.981 112.205 57.3712C112.793 57.9323 113.376 57.9198 113.956 57.3337C114.247 57.0407 114.711 56.6866 115.001 56.3935C116.106 55.6241 116.34 55.7339 116.407 57.0518C116.47 57.7962 116.593 58.7114 117.005 59.3336C117.358 59.785 117.712 60.2363 116.659 60.0294C116.425 59.9197 116.31 60.1516 116.02 60.4447C115.44 61.0307 114.685 61.6779 114.339 62.3737C113.703 63.3625 112.77 63.4972 111.837 63.6319C110.844 63.5958 110.781 62.8514 110.428 62.4001C110.071 61.3751 109.889 60.2891 108.777 59.9113ZM119.44 65.7638C119.5 65.9346 119.618 66.2763 119.444 66.3374C119.098 67.0331 117.231 67.3026 116.644 66.7415C116.35 66.4609 115.882 66.2415 115.473 66.1929C114.655 66.0957 113.781 66.4012 113.023 66.4748C112.089 66.6095 111.327 66.1096 110.799 65.7193C110.565 65.6096 111.32 64.9624 111.316 64.3888C111.372 63.9861 111.487 63.7542 112.071 63.7417C113.413 63.6556 114.518 62.8862 115.094 61.7265C115.324 61.2627 115.964 60.8474 116.369 60.3224C116.659 60.0294 117.068 60.078 117.477 60.1266C117.886 60.1752 117.656 60.6391 117.715 60.8099C117.897 61.896 118.02 62.8112 118.377 63.8361C118.496 64.1778 118.265 64.6416 118.734 64.8611C119.202 65.0805 119.146 65.4832 119.44 65.7638ZM109.796 54.9561C108.577 55.9574 107.115 55.7019 105.833 55.9588C105.658 56.0199 105.483 56.081 105.189 55.8005C104.951 55.1172 104.308 54.9589 103.665 54.8005C103.197 54.5811 102.553 54.4228 103.074 53.6659C103.364 53.3728 103.186 52.8604 102.951 52.7507C102.598 52.2993 102.948 52.1771 103.238 51.8841C104.576 51.2244 106.562 51.2966 107.677 52.2479C108.499 52.9187 109.61 53.2965 109.502 54.6756C109.502 54.6756 109.737 54.7853 109.796 54.9561ZM119.563 66.679C119.801 67.3623 120.154 67.8137 120.332 68.3261C120.511 68.8386 120.574 69.583 120.752 70.0955C120.99 70.7787 120.581 70.7301 120.172 70.6815C119.529 70.5232 119.179 70.6454 118.774 71.1704C118.659 71.4023 118.544 71.6342 118.428 71.8662C118.198 72.33 117.733 72.6842 117.268 73.0383C116.744 73.2216 116.74 72.6481 116.447 72.3675C116.212 72.2578 115.919 71.9773 115.684 71.8675C115.156 71.4773 115.037 71.1357 115.209 70.501C115.61 69.4024 115.778 68.1942 115.417 66.5957C116.882 67.4248 118.287 68.0831 119.563 66.679ZM105.859 50.9675C107.432 50.4175 109.064 50.0384 110.522 49.7203C110.871 49.5981 111.105 49.7078 111.339 49.8175C112.276 50.2564 112.399 51.1716 113.046 51.9035C113.399 52.3549 113.871 53.1479 112.882 53.6854C112.707 53.7465 112.652 54.1492 112.477 54.2103C112.072 54.7353 112.31 55.4186 111.904 55.9435C111.785 55.6019 111.436 55.7241 111.202 55.6144C110.674 55.2241 109.796 54.9561 109.908 54.1506C109.785 53.2354 109.607 52.7229 108.554 52.516C108.38 52.5771 108.32 52.4063 108.261 52.2354C107.614 51.5035 106.852 51.0036 105.859 50.9675ZM114.914 79.2268C114.39 79.4101 113.981 79.3615 113.572 79.3129C112.579 79.2768 111.646 79.4115 111.125 80.1684C110.49 81.1572 110.322 82.3655 109.452 83.2446C109.452 83.2446 109.337 83.4765 109.396 83.6473C109.515 83.989 109.575 84.1598 109.05 84.3431C108.701 84.4653 108.407 84.1848 108.348 84.014C107.995 83.5626 107.816 83.0501 107.403 82.428C106.991 81.8058 106.578 81.1836 107.567 80.6461C107.742 80.585 107.857 80.3531 107.972 80.1212C108.553 79.5351 108.605 78.5588 109.653 78.1921C110.527 77.8866 111.282 77.2394 112.334 77.4464C112.568 77.5561 112.683 77.3241 112.858 77.263C113.264 76.7381 113.557 77.0186 113.676 77.3603C113.914 78.0435 114.152 78.7268 114.914 79.2268ZM124.25 78.4533C124.187 77.7089 123.484 77.3797 123.306 76.8673C122.949 75.8423 121.25 74.9035 120.023 74.7577C119.265 74.8313 118.737 74.441 118.499 73.7577C118.261 73.0744 118.603 71.8051 119.183 71.219C119.473 70.926 121.224 70.8885 121.518 71.169C122.224 72.0717 123.165 73.0842 123.871 73.9869C124.931 75.341 125.232 76.7687 124.25 78.4533ZM110.158 84.1473C110.039 83.8057 109.921 83.464 110.27 83.3418C110.85 82.7557 111.136 81.8891 111.423 81.0225C111.594 80.3878 112.059 80.0337 112.758 79.7893C113.631 79.4837 114.394 79.9837 115.267 79.6782C115.267 79.6782 115.502 79.7879 115.561 79.9587C115.505 80.3615 115.799 80.642 115.918 80.9836C116.215 81.8378 115.754 82.7655 114.88 83.071C113.308 83.621 111.672 83.4265 110.158 84.1473ZM105.631 70.0176C105.103 69.6274 104.75 69.176 104.281 68.9566C103.4 68.115 102.575 66.8706 100.824 66.9081C100.649 66.9692 100.415 66.8595 100.006 66.8109C101.05 65.8707 101.861 64.8207 102.672 63.7708C102.962 63.4778 103.018 63.075 103.486 63.2944C103.954 63.5139 104.538 63.5014 104.427 64.3069C104.315 65.1124 104.144 65.7471 104.791 66.479C105.203 67.1012 105.85 67.833 105.564 68.6997C105.623 68.8705 105.568 69.2732 105.631 70.0176ZM111.921 76.8242C111.222 77.0686 110.583 77.4838 109.884 77.7283C109.185 77.9727 108.545 78.3879 108.199 79.0837C107.969 79.5476 107.563 80.0726 107.273 80.3656C107.158 80.5975 106.868 80.8906 106.634 80.7808C106.4 80.6711 106.106 80.3906 106.221 80.1587C106.102 79.817 106.567 79.4629 105.749 79.3657C105.165 79.3781 105.151 77.0839 105.79 76.6686C106.72 75.9603 107.887 75.9353 108.876 75.3979C109.226 75.2756 109.345 75.6173 109.754 75.6659C110.516 76.1659 110.929 76.7881 111.921 76.8242ZM109.625 55.5908C110.265 55.1755 110.443 55.688 110.911 55.9074C111.848 56.3463 111.908 56.5171 111.213 57.3351C111.097 57.567 110.923 57.6282 110.807 57.8601C110.346 58.7878 110 59.4836 108.658 59.5697C107.9 59.6433 107.431 59.4239 107.078 58.9725C106.725 58.5211 106.721 57.9476 106.078 57.7892C105.609 57.5698 105.375 57.4601 105.606 56.9962C105.602 56.4227 106.011 56.4713 106.42 56.5199C107.469 56.1532 108.695 56.2991 109.625 55.5908ZM112.148 75.7867C111.907 74.5299 111.665 73.273 112.241 72.1134C112.357 71.8814 112.412 71.4787 112.821 71.5273C113.989 71.5023 115.097 71.3065 116.038 72.3189C116.684 73.0508 116.863 73.5633 116.164 73.8077C115 74.4063 114.011 74.9437 113.2 75.9937C112.91 76.2867 112.267 76.1284 112.148 75.7867ZM98.7308 59.2086C99.1993 59.428 99.6083 59.4766 100.077 59.696C100.311 59.8058 100.72 59.8544 100.664 60.2571C100.556 61.6362 101.493 62.0751 102.49 62.6848C102.724 62.7945 102.958 62.9042 102.668 63.1972C102.032 64.186 101.222 65.236 100.292 65.9443C99.5187 63.7236 98.9798 61.6126 98.7308 59.2086ZM100.708 67.14C101.586 67.4081 102.519 67.2734 102.932 67.8955C103.404 68.6885 104.4 69.2982 104.988 69.8593C105.281 70.1398 105.516 70.2496 105.634 70.5912C105.928 70.8717 105.872 71.2745 105.289 71.287C104.764 71.4703 104.006 71.5439 103.601 72.0689C103.195 72.5939 102.902 72.3133 102.783 71.9717C102.485 71.1176 102.128 70.0926 101.831 69.2385C101.418 68.6163 100.831 68.0552 100.708 67.14ZM112.804 50.6467C114.329 51.6466 115.273 53.2326 115.808 54.77C115.868 54.9408 116.161 55.2214 115.637 55.4047C114.763 55.7102 114.183 56.2963 113.603 56.8824C113.313 57.1754 112.964 57.2976 112.495 57.0782C112.027 56.8588 111.908 56.5171 112.138 56.0533C112.254 55.8213 112.31 55.4186 112.425 55.1866C112.655 54.7228 112.592 53.9784 113.291 53.734C113.931 53.3187 113.812 52.9771 113.633 52.4646C113.57 51.7202 113.217 51.2688 112.804 50.6467ZM101.315 52.5562C101.724 52.6048 102.13 52.0799 102.423 52.3604C102.717 52.6409 102.836 52.9826 102.78 53.3853C102.724 53.7881 102.609 54.02 102.319 54.3131C101.215 55.0825 100.11 55.8518 99.0062 56.6212C98.8314 56.6823 98.7161 56.9143 98.5972 56.5726C98.4187 56.0602 98.0656 55.6088 98.1214 55.206C98.1177 54.6325 98.404 53.7659 99.2778 53.4603C99.8021 53.277 100.501 53.0326 101.315 52.5562ZM131.377 42.6195C131.604 41.582 131.83 40.5446 131.474 39.5197C131.236 38.8364 131.232 38.2628 130.994 37.5795C130.935 37.4087 130.875 37.2379 131.05 37.1767C131.399 37.0545 132.162 37.5545 132.455 37.835C132.987 38.7989 132.645 40.0682 132.652 41.2154C132.831 41.7279 132.719 42.5334 131.377 42.6195ZM56.4698 78.585C57.113 78.7433 57.3473 78.853 57.4662 79.1947C57.771 81.1959 57.1425 83.3319 57.0977 85.4554C57.0419 85.8581 56.6329 85.8095 56.4581 85.8706C56.1086 85.9928 56.1644 85.5901 56.2797 85.3582C56.3913 84.5526 56.5029 83.7471 56.6145 82.9416C56.7224 81.5626 57.7636 80.0488 56.4698 78.585ZM60.3652 94.2771C59.0157 93.216 58.0751 92.2036 57.3092 91.13C57.2497 90.9592 56.7218 90.5689 57.2461 90.3856C57.7703 90.2023 58.1756 89.6773 58.6478 90.4703C59.0641 91.6661 59.6552 92.8008 60.3652 94.2771ZM54.6027 87.8608L54.5432 87.6899C55.1827 87.2747 56.116 87.14 56.7555 86.7247C56.9303 86.6636 56.9303 86.6636 56.9898 86.8344C57.1682 87.3469 57.4061 88.0302 57.3503 88.433C57.2945 88.8357 56.6513 88.6774 56.3018 88.7996C55.9523 88.9218 55.6028 89.044 55.019 89.0565C54.8443 89.1176 54.3795 89.4718 54.3758 88.8982C54.2568 88.5566 54.6064 88.4343 54.8964 88.1413C55.4207 87.958 55.9449 87.7747 56.4692 87.5913C56.0007 87.3719 55.6512 87.4941 55.4765 87.5552C55.3612 87.7872 55.0117 87.9094 54.6027 87.8608ZM165.292 51.0718C163.72 51.6218 162.266 52.5134 160.574 52.7217C162.203 51.769 163.835 51.3899 165.292 51.0718ZM123.57 72.5592C121.574 70.7663 121.102 69.9732 121.15 68.4233C122.325 69.5455 122.57 71.3759 123.57 72.5592ZM57.763 89.0551C57.0676 89.8731 56.3686 90.1176 55.4354 90.2523C55.2606 90.3134 55.0859 90.3745 55.0264 90.2037C54.9074 89.862 55.3164 89.9106 55.4912 89.8495C56.0712 89.2635 56.8297 89.1899 57.763 89.0551ZM176.711 47.2707C177.64 46.5624 178.689 46.1958 179.797 46C178.927 46.8791 177.7 46.7332 176.711 47.2707ZM98.3703 57.6101C98.664 57.8906 99.1325 58.11 99.0767 58.5128C99.0767 58.5128 98.9614 58.7447 98.7272 58.635C98.2587 58.4156 98.4893 57.9517 98.3703 57.6101ZM53.5676 108.534C53.6234 108.132 53.7981 108.071 54.0882 107.778C53.9729 108.009 54.0918 108.351 53.5676 108.534Z" fill="#040404"/>
<path d="M53.8903 108.736C54.4767 108.724 54.3572 108.38 54.4132 107.976C54.2376 108.037 53.9463 108.332 53.8903 108.736Z" fill="#040404"/>
<path d="M145.508 40.6812C145.624 40.4471 145.564 40.2746 145.68 40.0405C145.68 40.0405 145.68 40.0405 145.444 39.9298C145.564 40.2746 145.448 40.5087 145.508 40.6812Z" fill="#040404"/>
<path d="M145.793 39.8072L145.677 40.0406C145.677 40.0406 145.677 40.0406 145.913 40.1514C145.677 40.0406 145.853 39.9793 145.793 39.8072Z" fill="#040404"/>
<path d="M115.105 50.3368L114.93 50.3982C114.93 50.3982 114.989 50.5699 115.105 50.3368C114.989 50.5699 115.165 50.5085 115.105 50.3368Z" fill="#040404"/>
<path d="M54.8626 107.037C54.8626 107.037 54.6897 107.098 54.8626 107.037C54.9218 107.207 54.8626 107.037 54.8626 107.037Z" fill="#040404"/>
<path d="M54.2196 77.2652C54.2196 77.2652 54.2797 77.4369 54.2196 77.2652C54.3949 77.2043 54.2196 77.2652 54.2196 77.2652C54.1596 77.0936 54.2196 77.2652 54.2196 77.2652Z" fill="#040404"/>
<path d="M79.761 75.8694C78.8722 74.448 78.4502 72.6709 77.737 71.1881C77.498 70.5018 76.7921 70.1712 76.2618 69.7792C74.4319 67.917 72.1426 67.5626 69.4536 68.8876C67.9336 69.6115 66.4136 70.3354 65.0728 71.574C64.4902 72.1626 64.5537 72.9103 64.1466 73.4375C64.0308 73.6705 64.2661 73.7807 64.4416 73.7193C65.2595 73.2409 66.1969 73.1056 66.4845 72.2352C66.716 71.7693 67.0671 71.6466 67.4182 71.5239C68.8784 70.6284 70.3387 69.7329 72.0417 70.0999C73.5094 70.3566 75.3281 70.4906 76.4485 71.4461C77.5689 72.4016 77.9871 73.6026 78.4651 74.9752C78.7004 75.0854 79.0552 75.5388 79.761 75.8694Z" fill="#040404"/>
<path d="M74.4854 77.2255C75.0282 78.7813 75.7479 80.2754 76.4677 81.7695C77.1874 83.2636 78.2007 84.4613 79.6846 85.3009C80.4567 85.8071 80.8185 86.8443 80.9431 87.7704C81.1844 88.4619 81.6026 89.0916 81.0757 89.8573C80.9591 90.0919 81.136 90.0301 81.1963 90.203C81.3733 90.1412 81.5502 90.0795 81.4899 89.9066C81.7192 88.857 81.9485 87.8074 81.7636 86.7084C81.3977 85.0908 80.3281 84.3006 79.0212 83.3993C77.7746 82.6708 77.469 81.2261 76.693 80.1395C76.2145 79.3369 75.9129 78.4726 75.4344 77.67C75.3741 77.4971 75.0765 77.2131 74.4854 77.2255Z" fill="#040404"/>
<path d="M75.3269 92.8241C75.2672 92.6526 75.0321 92.5425 74.8567 92.6038C73.8042 92.9718 72.9235 92.7028 71.9271 92.6665C70.6955 92.5201 69.5834 92.7166 68.5235 91.9332C68.2884 91.8231 67.8779 91.7743 67.5271 91.8969C66.1798 91.9833 65.2394 91.5428 64.0638 90.9922C63.3585 90.6618 62.6532 90.3314 62.1233 89.9397C61.8881 89.8296 61.7127 89.8909 61.5373 89.9523C61.4216 90.1851 61.4813 90.3565 61.7164 90.4666C62.7763 91.2501 63.545 92.3276 64.7206 92.8782C65.4856 93.38 66.482 93.4163 67.4188 93.2811C69.408 92.778 71.5202 93.1934 73.5131 93.2659C73.9236 93.3147 74.5095 93.3022 74.9201 93.351C75.2709 93.2283 75.3866 92.9955 75.3269 92.8241Z" fill="#040404"/>
<path d="M69.5626 85.3003C69.5588 84.7222 69.1464 84.6731 68.6741 84.4519C67.4931 83.8987 66.8407 83.1609 66.6569 82.0662C66.1769 80.6887 64.996 80.1356 63.4627 79.7056C63.2265 79.595 62.8141 79.5459 62.6379 79.6075C61.8131 79.5093 61.2807 79.1159 60.8646 78.4887C60.8046 78.3165 60.5684 78.2059 60.4522 78.4397C60.276 78.5012 60.336 78.6734 60.5722 78.784C61.4046 80.0384 62.4693 80.8253 63.8265 81.3169C65.1836 81.8084 65.7798 82.9522 66.6684 83.8006C67.6131 84.2431 68.1493 85.2147 69.5626 85.3003Z" fill="#040404"/>
<path d="M62.2639 70.5883C61.7969 70.9441 61.0383 71.5944 60.631 72.1219C59.5848 73.643 58.9495 75.213 58.3741 76.9547C58.4338 77.1263 58.0826 77.2491 58.318 77.3594C58.5534 77.4696 58.6693 77.2366 58.7851 77.0035C59.7192 76.2918 59.9472 75.2494 60.4105 74.3171C61.1055 72.9188 61.8604 71.6922 62.8506 70.5757C63.0262 70.5144 62.9664 70.3427 62.9066 70.171C62.7908 70.4041 62.5554 70.2938 62.2639 70.5883Z" fill="#040404"/>
<path d="M71.3083 81.4012C71.2482 81.2286 71.188 81.0561 70.8912 80.7728C69.9405 79.7501 69.2828 78.4317 68.6852 77.2857C68.0877 76.1398 67.851 76.0289 66.555 76.288C66.3784 76.3496 66.1417 76.2388 66.2019 76.4113L66.3222 76.7563C67.9189 77.3598 68.4 78.7399 69.2343 79.9967C69.6514 80.6251 70.2451 81.1919 70.899 81.9312C70.9591 82.1037 71.1357 82.042 71.1357 82.042C71.3685 81.5737 71.3083 81.4012 71.3083 81.4012Z" fill="#040404"/>
<path d="M83.7836 86.4092C83.9083 87.3358 84.5641 88.077 84.5118 89.0653C84.4554 89.4729 84.4595 90.0536 83.9887 90.4118C83.8117 90.4736 83.695 90.7083 83.9324 90.8195C84.1697 90.9307 84.2864 90.6959 84.2864 90.6959C84.8135 89.93 84.9866 89.2876 84.6848 88.4229C84.3751 86.3969 83.3572 84.618 82.9871 82.419C82.9267 82.2461 83.0434 82.0114 82.629 81.962C82.2749 82.0855 82.3956 82.4314 82.4559 82.6044C83.1158 83.9262 83.3612 85.1986 83.7836 86.4092Z" fill="#040404"/>
<path d="M73.8318 95.3125C73.2434 94.7505 72.7778 95.1052 72.2526 95.2889C69.5077 95.8648 66.8187 96.0373 64.2377 94.8284C64.1818 95.2318 64.4165 95.3417 64.6511 95.4516C66.5281 96.3308 68.8075 96.1096 70.9118 95.9497C72.0217 95.7535 72.897 95.4474 73.8318 95.3125Z" fill="#040404"/>
<path d="M77.7078 89.103C76.8727 87.8452 76.2143 86.5256 74.8491 85.4528C74.3753 85.2309 74.0179 84.7746 73.6606 84.3183C73.6004 84.1457 73.5402 83.973 73.4237 84.2074C73.247 84.2691 73.3072 84.4417 73.3674 84.6144C73.6645 84.898 73.9616 85.1816 74.2588 85.4653C75.5638 86.3654 76.3989 87.6232 77.234 88.8811C77.3544 89.2264 77.4748 89.5717 77.3583 89.8061C77.2418 90.0405 77.0651 90.1021 77.302 90.2131C77.539 90.3241 77.6555 90.0897 77.772 89.8554C77.9487 89.7937 77.8282 89.4484 77.7078 89.103Z" fill="#040404"/>
<path d="M68.9461 72.5345C68.7706 72.5958 68.8303 72.7673 68.8303 72.7673C68.8901 72.9389 68.8901 72.9389 69.0655 72.8775C69.241 72.8162 69.3007 72.9877 69.4762 72.9263C71.4662 72.423 73.0566 73.5986 74.6433 74.1982C74.8785 74.3084 74.8785 74.3084 75.1137 74.4186C75.3489 74.5287 75.4086 74.7003 75.6998 74.406C75.8156 74.1732 75.5804 74.063 75.4049 74.1243C74.2289 73.5735 73.0529 73.0226 71.7014 72.5331C70.88 72.4355 69.8272 72.8036 68.9461 72.5345Z" fill="#040404"/>
<path d="M60.4655 82.3131C59.7679 83.7165 60.1282 84.7503 61.4301 85.6484C62.2593 86.3251 63.5574 86.6448 64.5028 87.0876C64.7392 87.1983 64.9155 87.1367 64.8554 86.9644C64.9717 86.7305 64.7954 86.7921 64.559 86.6814C63.8499 86.3493 63.1409 86.0172 62.4318 85.685C61.1899 84.9592 60.3007 84.1102 60.5856 82.6577C60.7619 82.5961 60.5255 82.4854 60.4655 82.3131Z" fill="#040404"/>
<path d="M82.1384 81.1267C81.9542 80.0303 80.9476 79.4145 80.294 78.6755C79.9973 78.3922 79.7006 78.109 79.4039 77.8257C79.3438 77.6532 79.1673 77.7149 78.9908 77.7765C78.8143 77.8382 78.8744 78.0106 79.0509 77.949C80.294 78.6755 81.0679 79.7595 81.8417 80.8434C81.7854 81.25 81.9619 81.1883 82.1384 81.1267Z" fill="#040404"/>
<path d="M81.6797 94.343C81.6201 94.1718 81.6201 94.1718 81.445 94.233C80.335 94.4292 79.1617 93.8797 78.1112 94.247C77.9361 94.3082 77.7015 94.1983 77.7611 94.3694C77.6456 94.6018 78.0553 94.6505 78.2304 94.5893C79.3404 94.3931 80.3946 94.6004 81.3891 94.6365C81.5642 94.5753 81.7988 94.6852 81.6797 94.343Z" fill="#040404"/>
<path d="M128.76 59.9332C129.113 59.81 129.053 59.6377 128.993 59.4654C129.27 56.8564 129.607 54.4197 130.886 51.8473C131.118 51.3796 131.114 50.8012 131.111 50.2228C131.167 49.8166 130.81 49.3614 131.395 48.7705C131.688 48.4751 131.275 48.426 131.039 48.3153C130.803 48.2046 130.626 48.2662 130.51 48.5001C130.338 49.1401 129.989 49.8416 129.877 50.6539C129.592 52.1061 128.954 53.6815 128.906 55.2444C128.974 56.5735 128.452 57.915 128.52 59.2441C128.58 59.4163 128.464 59.6502 128.76 59.9332Z" fill="#040404"/>
<path d="M134.465 76.0835C132.187 72.4088 130.619 68.4868 129.643 64.5524C128.765 66.0246 132.562 75.1925 134.465 76.0835Z" fill="#040404"/>
<path d="M123.952 61.6685C123.96 62.8311 124.5 63.8083 124.685 64.909C124.871 66.0098 125.411 66.9869 125.419 68.1495C125.48 68.3227 125.54 68.4958 125.6 68.669C125.899 68.9535 125.903 69.5348 126.257 69.4111C126.789 69.2256 126.253 68.8298 126.132 68.4835C125.999 66.3933 125.096 64.3772 124.431 62.4725C124.488 62.0644 124.544 61.6562 123.952 61.6685Z" fill="#040404"/>
<path d="M135.282 76.7978C135.049 77.2671 135.17 77.6129 135.407 77.724C136.063 78.4651 136.602 79.4407 137.08 80.2435C137.438 80.7005 137.619 81.2192 137.446 81.8614C137.33 82.0961 137.567 82.2072 137.744 82.1455C137.921 82.0837 138.098 82.022 138.215 81.7873C138.154 81.6144 138.094 81.4415 138.034 81.2686C137.551 79.8853 136.952 78.7367 135.821 77.7734C135.701 77.4276 135.58 77.0818 135.282 76.7978Z" fill="#040404"/>
<path d="M124.561 49.39C123.972 49.4025 123.739 49.8702 123.507 50.3379C122.869 51.9133 122.997 53.4147 123.125 54.9161C123.185 55.0883 123.245 55.2606 123.421 55.199C123.598 55.1374 123.714 54.9036 123.654 54.7313C123.71 54.3252 123.65 54.1529 123.53 53.8083C123.638 52.4177 123.687 50.8547 124.561 49.39Z" fill="#040404"/>
<path d="M129.938 78.2554C129.926 76.5123 129.382 74.9547 128.484 73.5207C128.424 73.3476 128.186 73.2363 127.892 73.533C127.776 73.7679 127.953 73.7061 128.013 73.8791C128.67 74.6209 129.032 75.6593 129.217 76.7595C129.399 77.2788 129.58 77.798 129.938 78.2554Z" fill="#040404"/>
<path d="M98.296 82.1352C97.593 82.381 96.8376 83.6086 97.2527 84.2343C97.5518 85.0932 98.8457 85.4117 99.9003 85.0431C100.779 84.7359 101.011 84.2695 100.413 82.5516C100.113 81.6926 99.5263 81.7052 98.296 82.1352Z" fill="#040404"/>
<path d="M52.5694 77.983C52.5694 77.983 52.3337 77.8726 52.2739 77.7007C49.386 76.2043 46.3784 74.3641 43.6064 72.6343C42.8994 72.3032 42.0166 72.0335 41.4255 71.469C41.3657 71.2972 41.0141 71.4201 40.8981 71.6534C40.5502 72.3533 40.0265 73.1146 40.15 74.0353C40.0939 74.4404 40.5652 74.6612 40.9767 74.7101C44.3921 76.0222 47.8074 77.3343 51.3349 77.8362C51.5706 77.9465 51.9821 77.9955 52.2178 78.1059C52.5133 78.3881 52.6891 78.3266 52.5694 77.983Z" fill="#040404"/>
<path d="M48.931 90.0238C46.1909 90.5988 43.4545 91.7472 40.4766 91.6389C40.0676 91.5903 39.9524 91.8222 39.8966 92.2249C39.9597 92.9693 40.3723 93.5914 40.785 94.2135C40.9039 94.5551 41.3129 94.6038 41.6029 94.3107C42.7666 93.7122 43.9898 93.2845 44.9787 92.7471C46.6667 91.9652 48.2393 91.4153 49.8678 90.4627C50.2173 90.3405 50.682 89.9863 51.0315 89.8641C51.2063 89.803 51.4963 89.51 51.4368 89.3392C51.3773 89.1684 51.2026 89.2295 50.8531 89.3517C50.3289 89.535 49.6299 89.7794 48.931 90.0238Z" fill="#040404"/>
<path d="M39.3627 80.1378C39.542 80.6525 39.893 80.5297 40.3038 80.5786C42.298 80.6512 44.352 80.8953 46.3462 80.968C47.5785 81.1145 48.8669 80.8565 49.9275 81.6404C50.1628 81.7506 50.2786 81.5177 50.3943 81.2847C50.5101 81.0518 50.3906 80.7087 49.9798 80.6598C48.6877 80.3418 47.5711 79.9623 46.3387 79.8158C44.225 79.4001 42.1113 78.9844 40.4607 77.6369C40.1657 77.3551 39.7549 77.3063 39.6989 77.7108C39.5868 78.5198 39.4748 79.3288 39.1274 80.0276C39.4785 79.9048 39.5382 80.0764 39.3627 80.1378Z" fill="#040404"/>
<path d="M38.9071 84.9646C39.0263 85.307 39.1456 85.6494 39.4959 85.5269C39.9058 85.5757 40.1406 85.6856 40.491 85.5631C43.4724 85.0968 46.3383 84.8629 49.439 84.7391C49.6142 84.6778 49.7893 84.6166 49.9645 84.5553C50.3148 84.4328 50.49 84.3716 50.5459 83.9679C50.4267 83.6254 50.0764 83.7479 49.9012 83.8092C48.3807 83.9567 46.9757 83.8718 45.5111 83.6157C44.0465 83.3595 42.757 83.0421 41.2924 82.786C39.3582 82.3099 39.1831 82.3712 39.019 84.1572C39.0227 84.7321 38.9071 84.9646 38.9071 84.9646Z" fill="#040404"/>
<path d="M54.1794 96.5982C53.5385 97.0143 52.7225 97.4917 52.1412 98.079C50.278 99.4986 48.1802 100.808 46.0227 101.947C45.6725 102.069 45.1471 102.253 45.1508 102.828C45.3892 103.512 45.7432 103.965 46.4474 104.295C46.9168 104.514 47.2075 104.221 47.4981 103.927C48.3701 103.046 49.3576 101.933 50.2295 101.052C51.5076 99.6447 52.905 98.58 54.4178 97.2829C54.5334 97.0505 54.8836 96.928 54.7644 96.5856C54.4701 96.3045 54.3545 96.5369 54.1794 96.5982Z" fill="#040404"/>
<path d="M49.583 94.685C47.66 95.3574 46.0308 96.3105 44.0483 96.812C42.2406 97.2525 42.3001 97.4233 42.8356 98.9613C43.1925 99.9867 43.4269 100.096 44.2973 99.217C46.0976 97.629 48.3108 96.6634 50.4049 95.356C50.8699 95.0017 51.3943 94.8184 51.8593 94.4641C52.0341 94.403 52.3838 94.2807 52.0899 94C51.9709 93.6583 51.6213 93.7805 51.4465 93.8417C50.9815 94.1959 50.2822 94.4405 49.583 94.685Z" fill="#040404"/>
<path d="M51.8374 85.489C51.2536 85.5015 50.4951 85.5751 49.7365 85.6487C48.0447 85.857 46.1781 86.1265 44.4863 86.3348C44.3115 86.3959 44.0773 86.2862 44.0214 86.689C44.0809 86.8598 44.2557 86.7987 44.4899 86.9084C46.8808 86.4557 49.3312 86.1737 51.6663 86.1237C51.8411 86.0626 52.0158 86.0015 52.1906 85.9404C52.3654 85.8793 52.6554 85.5862 52.4212 85.4765C52.2427 84.964 52.1869 85.3668 51.8374 85.489Z" fill="#040404"/>
<path d="M46.4144 100.235C47.8108 99.1708 49.2667 98.2779 50.4881 97.2751C50.6632 97.2139 50.7786 96.9816 50.544 96.8717C50.4845 96.7006 50.3095 96.7618 50.194 96.9941C48.913 97.8259 47.8071 98.5964 46.5857 99.5992C46.4702 99.8315 46.2952 99.8927 46.4144 100.235Z" fill="#040404"/>
<path d="M60.7088 98.0007C60.1218 98.0132 60.0657 98.4182 59.9498 98.6514C59.4301 99.9891 58.7907 100.983 58.2112 102.149C58.0953 102.383 57.9195 102.444 58.1551 102.554C58.3906 102.665 58.3308 102.493 58.5065 102.431C59.3777 100.971 60.0732 99.5716 60.7088 98.0007Z" fill="#040404"/>
<path d="M48.4368 93.6978C49.4838 93.3318 50.5903 93.1363 51.4628 92.8312C51.6373 92.7702 51.9863 92.6482 51.8675 92.307C51.8081 92.1365 51.4591 92.2585 51.2846 92.3195C50.2376 92.6856 49.1311 92.8811 48.3774 93.5273C48.3774 93.5273 48.3774 93.5273 48.4368 93.6978Z" fill="#040404"/>
<path d="M54.1174 94.259C53.127 94.7972 52.1962 95.5064 51.2653 96.2157C51.1499 96.4479 50.7999 96.5703 50.919 96.9124C51.2131 97.1933 51.269 96.79 51.3844 96.5578C52.1403 95.9097 53.3057 95.3104 54.0615 94.6623C54.2365 94.6011 54.646 94.6498 54.5269 94.3077C54.6423 94.0754 54.2924 94.1978 54.1174 94.259Z" fill="#040404"/>
<path d="M45.1773 73.2401C46.7106 74.2458 48.4758 74.7851 49.8895 75.4472C50.1251 75.5576 50.1251 75.5576 50.3009 75.4962C50.4168 75.2629 50.1812 75.1526 50.0054 75.214C49.063 74.7726 48.1205 74.3311 47.2379 74.0615C46.7667 73.8408 46.1197 73.6815 45.7644 73.2276C45.7046 73.0558 45.469 72.9454 45.1773 73.2401Z" fill="#040404"/>
<path d="M43.9421 88.6582C43.7673 88.7193 43.5926 88.7804 43.4773 89.0124L43.362 89.2443C43.4215 89.4152 43.5963 89.3541 43.5963 89.3541C44.6449 88.9874 45.9278 88.7305 47.0954 88.7055C47.2702 88.6444 47.4449 88.5833 47.3855 88.4124C47.326 88.2416 47.1512 88.3027 47.1512 88.3027C45.9836 88.3277 45.0502 88.4624 43.9421 88.6582Z" fill="#040404"/>
<path d="M53.1423 102.167C53.9564 101.112 54.7705 100.058 55.7601 98.942C55.7601 98.942 55.8759 98.709 55.6407 98.5989C55.5809 98.4273 55.4054 98.4887 55.2896 98.7216C54.4755 99.776 53.4261 100.72 52.8473 101.885C53.0825 101.995 53.1423 102.167 53.1423 102.167Z" fill="#040404"/>
<path d="M53.0793 82.9111C51.9061 82.3616 50.4459 82.6801 49.2763 82.7052C50.4496 83.2547 51.7347 82.9974 53.0793 82.9111Z" fill="#040404"/>
<path d="M42.8993 76.7555C42.8433 77.1601 43.2541 77.2089 43.2541 77.2089C44.1354 77.4781 44.957 77.5758 45.8383 77.845C46.0736 77.9552 46.2491 77.8939 46.1894 77.7223C46.3052 77.4893 46.2454 77.3178 46.0102 77.2076C45.013 77.1713 43.9562 76.9634 42.8993 76.7555Z" fill="#040404"/>
<path d="M51.589 100.986C50.8908 101.807 49.8976 102.347 49.4346 103.278C49.4346 103.278 49.4943 103.45 49.554 103.621C49.554 103.621 49.7893 103.731 49.7295 103.56C50.4278 102.738 51.3612 102.027 51.589 100.986Z" fill="#040404"/>
<path d="M55.8304 106.491C56.5891 105.84 56.8768 104.969 57.4001 104.209C57.4001 104.209 57.5159 103.975 57.2804 103.865C57.045 103.755 57.1048 103.926 56.9291 103.988C56.4657 104.92 56.1181 105.62 55.8304 106.491Z" fill="#040404"/>
<path d="M49.1318 106.308C49.4267 106.59 49.6021 106.528 49.7178 106.295C49.9492 105.83 50.2404 105.536 50.5315 105.241C50.7069 105.18 50.6472 105.009 50.5875 104.837C50.3523 104.727 50.412 104.898 50.2366 104.96C49.9455 105.254 49.7141 105.72 49.4229 106.014C49.2475 106.075 49.3072 106.247 49.1318 106.308Z" fill="#040404"/>
<path d="M43.1894 102.153C43.249 102.324 43.4836 102.434 43.5991 102.201C44.2397 101.785 44.7053 101.431 45.0516 100.734C44.411 101.15 43.7704 101.566 43.1894 102.153Z" fill="#040404"/>
<path d="M27.2967 99.1373C28.6903 98.6501 29.9098 98.2238 31.1292 97.7975C32.2893 97.201 33.8015 97.0543 34.9616 96.4578C35.1358 96.3969 35.4842 96.2751 35.4249 96.1048C35.3656 95.9345 35.0172 96.0563 34.843 96.1172C32.3449 96.7995 29.9654 97.8224 27.3523 98.7359C27.3523 98.7359 27.1781 98.7968 27.2967 99.1373Z" fill="#040404"/>
<path d="M24.324 98.4307C22.9295 98.9182 21.2458 99.698 19.677 100.247C19.5027 100.307 19.154 100.429 19.2134 100.6C19.332 100.94 19.447 100.709 19.7956 100.587C21.828 99.6856 23.9197 98.9543 26.0115 98.223C26.1858 98.162 26.3601 98.1011 26.5344 98.0402C26.7087 97.9792 27.0573 97.8573 26.998 97.687C26.8793 97.3462 26.59 97.6385 26.3564 97.529C25.7185 97.9432 25.1955 98.126 24.324 98.4307Z" fill="#040404"/>
<path d="M23.1837 100.191C21.3817 100.63 19.8725 101.349 18.1298 101.958C17.9555 102.019 17.7813 102.08 18.0149 102.189C18.0742 102.36 18.2484 102.299 18.4227 102.238C19.6426 101.811 20.8626 101.385 22.0825 100.958C22.6053 100.776 22.9538 100.654 23.1837 100.191Z" fill="#040404"/>
<path d="M9.25332 105.06C10.069 105.157 10.9404 104.852 11.6375 104.608C12.8573 104.182 14.0772 103.755 15.2971 103.329C15.4714 103.268 15.6456 103.207 15.8199 103.146C15.9942 103.085 16.1685 103.024 16.1091 102.854C16.0498 102.683 15.8755 102.744 15.7013 102.805C14.4814 103.232 13.2615 103.658 12.1009 104.255C11.5781 104.438 10.8811 104.682 10.2989 104.694C9.89107 104.646 9.48322 104.597 9.25332 105.06Z" fill="#040404"/>
<path d="M16.0856 101.697C16.7285 101.855 17.3678 101.44 18.126 101.367C18.3007 101.306 18.4753 101.245 18.4159 101.074C18.3564 100.903 18.1817 100.964 18.1223 100.793C17.3641 100.867 16.7248 101.282 16.0856 101.697Z" fill="#040404"/>
<path d="M56.8338 94.264C57.0099 94.2024 57.4221 94.2515 57.3022 93.9072C57.1222 93.3907 57.3545 92.9233 57.3507 92.3452C56.7661 92.9357 56.65 93.1694 56.8338 94.264Z" fill="#040404"/>
<path d="M54.201 84.4852C54.0252 84.5466 54.0851 84.7185 54.0851 84.7185C54.2048 85.0623 54.4406 85.1727 54.6763 85.2832C54.912 85.3936 55.2076 85.6759 55.4395 85.2093C55.5555 84.9759 55.1439 84.9269 54.9082 84.8165C54.6725 84.7061 54.4368 84.5956 54.3769 84.4238C54.4368 84.5956 54.3769 84.4238 54.201 84.4852Z" fill="#040404"/>
<path d="M56.228 91.3725C55.7598 91.7292 55.5876 92.3685 55.7675 92.8848C56.2357 92.5281 56.2318 91.9503 56.228 91.3725Z" fill="#040404"/>
</g>
</svg>
