<svg width="96" height="104" viewBox="0 0 96 104" fill="none" xmlns="http://www.w3.org/2000/svg">
<path d="M9.9078 62.8858C5.07163 58.0195 2.73518 51.7331 1.54917 45.1645C0.086195 37.4534 -0.609825 29.5542 1.94666 21.6642C6.76847 6.3592 22.058 -2.63622 37.234 1.30812C43.7248 2.94414 49.754 2.67589 56.1666 2.31359C72.1521 1.21741 84.2461 7.53164 90.9003 23.25C93.0521 28.7747 92.2426 33.8152 92.7682 39.3352C93.5707 45.9979 93.8974 52.3737 95.0834 58.9423C96.0067 62.7508 95.3036 66.5547 93.649 69.785C90.7232 76.1515 88.3656 83.1857 83.0608 88.1183C75.7321 94.7577 68.311 101.016 57.5096 100.034C51.2958 99.5406 46.2466 97.1475 42.6532 92.3798C39.9404 96.2731 36.5672 99.118 32.1501 101.008C28.4999 102.711 24.7574 104.032 20.8445 102.974C17.7908 102.109 15.0283 100.769 13.8139 97.4355C13.6293 96.6738 13.0611 96.0062 12.1095 95.4326C0.320942 87.026 2.93419 72.6661 8.942 63.9297C9.70896 63.7416 10.0001 63.2667 9.9078 62.8858ZM50.4575 64.2384C50.4575 64.2384 50.3652 63.8575 49.9817 63.9516C50.074 64.3325 50.074 64.3324 50.4575 64.2384C50.074 64.3324 50.4575 64.2384 50.4575 64.2384C52.2542 66.6222 56.7353 68.3476 60.6624 67.788C64.1137 66.9415 67.9486 66.0009 71.3999 65.1545C73.7008 64.5901 75.1424 63.8331 75.1708 60.5981C73.9138 62.1169 73.0687 60.3067 71.6271 61.0638C67.9769 62.766 64.4333 63.2316 60.5062 63.7913C57.0548 64.6378 53.6177 63.8668 50.4575 64.2384ZM49.1652 80.6952C48.384 82.5008 47.5105 83.9255 46.2536 85.4443C44.9966 86.9631 44.9824 88.5806 46.211 90.2967C49.8967 95.4452 55.4359 96.5076 61.3728 95.8585C70.1787 95.3128 76.0658 89.4304 81.9529 83.548C85.6173 80.2283 86.8103 75.0938 89.0472 70.9136C91.2842 66.7335 91.7102 61.7871 90.9858 57.1228C89.9987 49.6984 88.8268 41.5124 88.8978 33.4251C88.9404 28.5727 87.5413 24.4773 85.283 20.1892C79.3531 9.1352 69.8229 5.01667 57.381 5.64722C50.5849 6.10357 43.7887 6.55993 36.9144 5.01796C22.9812 1.17232 9.31794 10.1724 5.66077 23.5778C2.11011 35.7465 4.78747 46.7913 9.95037 58.0334C10.5185 58.7011 10.9801 60.6053 12.3294 59.4674C13.6787 58.3295 15.7949 57.0035 14.9498 55.1933C12.8761 51.6669 12.2441 47.3834 11.7043 43.4808C10.639 34.0582 11.7681 25.3078 19.0045 18.2875C20.6449 16.6747 22.0865 15.9176 24.3874 15.3533C27.9311 14.8877 31.8582 14.328 35.4019 13.8624C42.5815 13.312 49.9458 13.5233 56.8059 16.6827C60.4277 18.2154 63.3748 20.317 66.9966 21.8497C71.9535 23.862 75.7457 27.7738 76.0866 32.5322C76.1506 36.148 77.2726 39.1008 78.487 42.4344C80.4542 47.1974 80.7951 51.9557 78.7428 56.8976C77.6705 59.178 77.1663 62.1262 77.8126 64.7922C78.2742 66.6964 78.1677 67.933 77.2019 68.9769C74.5956 71.6336 73.0333 75.2448 70.9029 78.1883C68.7725 81.1318 66.5497 83.6944 62.8072 85.0158C57.4385 86.3326 53.4474 83.2764 49.1652 80.6952ZM44.7053 65.6492C44.1513 63.3641 43.3062 61.5539 42.7523 59.2687C41.8149 57.0777 41.3533 55.1734 40.4159 52.9823C38.4487 48.2194 35.3027 46.9735 30.5944 49.3387C26.2696 51.6099 21.5613 53.9752 18.4651 57.9626C16.0435 61.381 13.5296 64.4185 11.108 67.8369C6.35714 75.0546 7.2378 83.7155 11.6763 90.2934C12.9972 92.3904 15.5751 92.9686 16.896 95.0656C18.9696 98.592 21.7321 99.932 25.9504 98.8974C34.387 96.8282 39.5072 91.1339 43.4911 84.1044C46.985 78.4055 45.8913 72.2178 44.7053 65.6492ZM43.4056 50.2316C47.1764 45.6753 51.4231 41.4057 54.8105 36.9434C57.6156 33.431 61.3723 30.4921 63.7015 26.6929C64.3762 26.1239 65.342 25.08 64.7738 24.4124C62.686 22.5035 59.8312 20.7827 57.3456 20.5853C55.2436 20.2939 54.9382 22.3862 54.4482 23.7169C51.0325 31.4141 46.7574 38.9186 42.8658 46.329C42.0847 48.1346 41.9782 49.3712 43.4056 50.2316ZM39.0594 44.0346C42.1414 41.6647 42.9368 38.2417 42.397 34.3391C41.6726 29.6748 40.089 24.8177 39.748 20.0594C39.6841 16.4436 37.6744 16.533 35.2812 16.7165C34.8977 16.8105 34.1307 16.9986 33.7472 17.0927C31.7375 17.1821 31.5387 18.0379 32.0003 19.9421C32.8312 23.3698 33.6621 26.7975 34.1095 30.3192C34.5428 35.4584 34.5002 40.3108 39.0594 44.0346ZM50.5994 48.0637C58.5602 45.7077 64.6319 40.5871 71.4565 36.8958C72.1311 36.3268 72.8058 35.7579 72.2376 35.0902C71.3002 32.8991 70.4551 31.0889 69.1342 28.9919C68.4738 27.9434 67.5222 27.3698 66.6487 28.7945C65.1929 31.1691 63.169 32.8759 61.3297 35.3445C57.85 39.426 53.511 43.3146 50.5994 48.0637ZM74.0841 42.7073C73.8213 39.9472 72.6709 40.2294 71.7051 41.2733C65.7398 45.1573 60.0657 48.5664 53.5324 51.7828C52.0908 52.5399 50.7415 53.6778 49.3922 54.8157C48.7176 55.3847 47.6594 56.0477 48.3199 57.0962C48.9803 58.1447 50.1308 57.8626 50.8054 57.2936C58.2904 54.6508 65.2073 51.3404 71.556 47.3623C73.6722 46.0363 74.4534 44.2307 74.0841 42.7073ZM17.3073 26.3703C15.745 29.9814 15.4254 33.6913 15.1059 37.4011C14.9994 38.6377 15.184 39.3994 16.7038 40.6407C18.6993 42.1687 21.2772 42.747 22.5981 44.844C24.8706 47.5146 26.788 47.0443 29.5789 45.1493C25.6162 38.8583 21.6535 32.5672 17.3073 26.3703ZM31.1554 39.9207C31.411 32.5951 30.3173 26.4074 28.4566 20.4078C28.272 19.646 27.995 18.5035 26.8446 18.7856C24.9272 19.2559 23.0098 19.7262 21.8451 21.6258C20.6805 23.5254 20.7586 25.5238 21.9872 27.2399C24.9202 30.9591 27.9454 35.059 31.1554 39.9207ZM73.1539 50.6019C66.7128 54.1991 59.7959 57.5096 53.1702 60.3451C59.0006 60.9326 64.1705 60.4716 69.7381 58.2991C73.8641 56.8836 74.4464 55.9338 73.1539 50.6019ZM43.1212 17.2146C43.171 22.4478 45.5216 27.1168 46.0472 32.6368C48.5753 27.9818 50.2441 23.134 52.5734 19.3348C49.7186 17.614 46.5584 17.9855 43.1212 17.2146ZM71.5562 69.1511C63.9789 71.413 56.4016 73.675 48.604 68.3245C49.5415 70.5155 48.8526 72.702 51.3382 72.8993C54.2995 73.3835 56.9697 74.3426 59.931 74.8268C66.9118 75.1322 69.8873 73.9989 71.5562 69.1511ZM51.0186 76.6092C52.6165 79.8488 55.6702 80.7138 58.3403 81.6729C61.394 82.5379 63.7091 80.3561 65.5483 77.8875C60.7477 79.872 56.3732 76.9099 51.0186 76.6092ZM15.6173 44.5386C16.0789 46.4429 16.4482 47.9663 16.8175 49.4897C17.7407 53.2983 17.6484 52.9174 20.8227 50.9284C22.5555 49.6964 22.8467 49.2215 20.8511 47.6934C19.3314 46.4522 17.904 45.5918 15.6173 44.5386Z" fill="#0A0A0A"/>
</svg>
