<svg width="15" height="14" viewBox="0 0 15 14" fill="none" xmlns="http://www.w3.org/2000/svg">
<path d="M13.674 9.1894C12.8163 9.1894 11.9742 9.05534 11.1761 8.79178C10.7851 8.65849 10.3043 8.78077 10.0657 9.02573L8.49044 10.2141C6.66365 9.23956 5.53838 8.11541 4.57655 6.30354L5.73068 4.77039C6.03053 4.47114 6.13808 4.03401 6.00922 3.62385C5.74436 2.82213 5.60981 1.98093 5.60981 1.12343C5.60985 0.503964 5.10555 0 4.48571 0H1.91296C1.29312 0 0.788818 0.503964 0.788818 1.12339C0.788818 8.22365 6.56905 14 13.674 14C14.2939 14 14.7982 13.496 14.7982 12.8766V10.3127C14.7981 9.69336 14.2938 9.1894 13.674 9.1894Z" fill="white"/>
</svg>
