<svg width="149" height="142" viewBox="0 0 149 142" fill="none" xmlns="http://www.w3.org/2000/svg">
<g opacity="0.1">
<path d="M138.311 41.7256C141.4 44.6667 142.889 48.5812 143.429 52.5908C143.82 54.3249 143.262 56.1543 142.202 57.369C138.741 61.928 134.778 65.8723 129.14 67.7681C126.219 68.8002 124.135 70.8565 121.846 73.0812C116.655 78.0355 111.669 82.8215 106.143 87.366C98.1981 93.5572 90.0857 99.5435 82.1779 105.362C78.1217 108.355 74.7727 111.794 70.7165 114.787C66.865 117.612 62.6785 120.027 58.1569 122.033C55.6077 123.101 53.3564 124.953 51.3097 126.636C49.0955 128.114 47.2163 130.002 45.3372 131.89C41.7835 135.498 37.9686 134.181 35.1583 130.326C32.683 126.88 32.1428 122.87 33.91 118.333C38.0212 109.128 42.3 100.127 46.2437 90.7172C47.9365 86.9267 49.7969 83.3411 51.1176 79.5142C52.2708 75.4823 54.8755 71.9698 56.5683 68.1794C58.2612 64.3889 60.4937 60.8399 60.7722 56.1569C60.9021 52.9667 61.3669 50.1861 59.8034 47.0181C59.0031 45.6206 59.5611 43.7913 60.082 42.3351C61.812 38.1715 64.9192 35.2736 68.9011 33.0267C73.4969 30.275 78.4838 29.2573 83.3775 27.2884C84.9405 26.6882 86.6338 26.6661 88.1225 26.8122C90.3555 27.0315 92.6257 26.8775 94.8959 26.7236C102.451 26.3349 109.912 24.995 117.263 28.5428C121.208 30.4375 125.637 31.2491 129.136 33.8536C132.634 36.458 136.207 38.3161 138.311 41.7256ZM74.0781 64.0577C74.1153 63.6846 74.1524 63.3114 73.7803 63.2749C73.4081 63.2383 73.7431 63.648 73.7059 64.0212C72.4407 65.4043 72.0686 65.3677 71.4729 63.802C70.8401 62.6094 70.5794 61.4533 72.0121 60.2751C71.2306 60.5752 69.8534 59.3095 70.0398 61.2119C70.1329 62.1631 70.8961 63.9337 70.1146 64.2338C68.1794 64.7975 69.7612 65.8949 69.3147 66.6047C68.6636 67.4828 67.882 67.7829 66.8027 67.3001C66.263 67.0587 65.9652 66.2758 65.4256 66.0344C64.5142 69.5247 65.9657 70.0441 71.6226 69.8458C71.2876 69.4361 71.1201 69.2313 70.7851 68.8216C70.4501 68.4118 70.3197 67.8338 70.7291 67.4972C71.1384 67.1605 71.5106 67.1971 72.0502 67.4385C74.1346 69.1504 73.7436 67.4163 73.8551 66.2968C73.9294 65.5504 74.3759 64.8406 74.0781 64.0577ZM129.344 63.8315C127.688 63.4805 126.757 61.505 124.859 61.6955C124.283 61.8273 124.189 60.8761 124.227 60.5029C124.45 58.2639 125.417 56.0979 127.427 54.7879C128.655 53.778 129.883 52.7681 130.943 51.5533C133.92 48.0774 136.227 47.5503 139.298 48.7938C139 48.0109 138.702 47.228 138.404 46.4451C138.237 46.2403 138.069 46.0354 137.902 45.8305C133.044 39.8897 127.294 35.3684 120.036 32.7718C118.213 32.2159 116.221 31.4552 114.602 30.731C111.737 29.3191 108.592 28.8219 105.745 29.1077C101.577 29.4521 97.4827 29.0501 93.4448 29.9725C91.919 30.1996 90.2257 30.2217 88.5695 29.8707C87.6576 29.5928 86.504 29.8563 85.5178 30.3247C80.6613 31.9204 75.6373 33.3113 71.0414 36.0631C68.0457 37.8415 65.7572 40.0661 64.3061 43.3151C63.6178 44.5664 63.6738 45.8908 64.2695 47.4565C65.3305 50.0101 65.8146 52.6954 64.9776 55.4394C64.6614 56.7272 64.5499 57.8467 64.6059 59.1711C65.5549 59.0759 66.3364 58.7758 66.7829 58.066C67.4341 57.1878 67.8806 56.478 69.0343 56.2145C71.5835 55.1459 73.9651 53.8724 76.6447 53.3819C79.6963 52.9278 83.1574 52.1372 86.2279 53.3807C88.0515 53.9366 90.0055 55.0705 91.9967 55.8312C97.0212 58.2086 99.1244 61.6181 98.1015 66.228C97.6738 68.6354 96.3715 70.3916 94.8645 72.3162C92.7063 75.1189 90.2503 77.1387 87.5896 79.3268C82.8822 83.1981 77.821 84.9621 71.7732 83.4263C66.6371 82.1684 63.5478 79.2273 62.7842 73.6884C62.5978 71.786 62.0022 70.2202 61.4809 67.908C57.5926 74.8744 54.8209 81.9503 51.5096 88.7848C52.2911 88.4847 52.4957 88.3164 52.7376 87.7749C53.7981 86.5602 54.6911 85.1405 55.7516 83.9258C56.4028 83.0477 57.6308 82.0378 58.6729 82.8937C59.8826 83.9545 61.0363 83.691 62.3946 83.2591C63.5483 82.9956 65.037 83.1417 66.5256 83.2879C68.9261 83.712 71.0105 85.4239 70.7875 87.663C70.6205 91.2264 69.2066 94.1022 66.5087 96.6635C64.4249 98.7198 61.5407 99.3787 58.5262 99.4596C57.7819 99.3865 57.0004 99.6866 56.2189 99.9867C54.6558 100.587 53.5765 100.104 52.5715 98.8749C51.064 97.0312 50.338 94.8874 50.3935 92.4435C50.5982 92.2752 50.6354 91.902 50.2632 91.8655C49.891 91.8289 49.8539 92.2021 49.8167 92.5753C48.44 95.0779 47.4355 97.617 46.0588 100.12C44.2356 103.332 43.6593 107.232 41.6314 110.613C40.9431 111.864 39.4732 113.415 39.6967 114.945C39.883 116.847 38.8597 117.689 38.1714 118.94C37.6505 120.396 36.9622 121.647 37.5207 123.586C37.9488 124.947 37.428 126.404 38.2283 127.801C39.494 130.186 40.9455 130.706 42.955 129.396C43.569 128.891 44.183 128.386 44.797 127.881C46.639 126.366 48.3507 124.273 50.323 123.336C55.0492 121.162 58.4726 116.977 62.3613 113.779C63.794 112.6 64.8917 111.012 66.3615 109.461C64.3332 109.073 63.1978 107.266 61.1323 107.252C60.388 107.179 59.8855 106.564 59.7923 105.613C59.662 105.035 60.1085 104.325 60.6853 104.193C62.3787 104.171 63.067 102.92 64.2579 102.283C66.0627 101.142 67.7189 101.493 69.0589 103.131C69.8964 104.156 69.9524 105.48 70.0084 106.804C73.3202 103.738 77.4324 102.069 80.7443 99.0032C80.0743 98.1838 79.33 98.1107 78.4741 99.1571C77.6183 100.204 76.6693 100.299 76.8551 98.433C76.8923 98.0598 76.7248 97.8549 76.762 97.4817C75.0681 93.7356 76.9285 90.15 80.9292 89.6008C82.455 89.3738 83.6087 89.1102 85.1345 88.8832C86.2882 88.6196 87.2372 88.5244 88.3165 89.0072C89.5634 89.6948 89.4519 90.8144 89.5079 92.1388C92.2057 89.5775 95.0711 87.221 97.7689 84.6597C96.2803 84.5136 95.3684 84.2356 94.3263 83.3796C92.9119 82.4871 93.1538 81.9456 94.0468 80.526C96.8561 76.8452 101.099 75.7545 105.006 74.254C105.583 74.1222 106.327 74.1953 106.458 74.7733C106.923 75.7611 107.332 75.4244 107.946 74.9195C108.765 74.2462 109.453 72.9949 110.44 72.5265C113.435 70.7481 115.593 67.9454 118.049 65.9256C119.687 64.5791 119.5 62.6766 117.751 61.3744C117.211 61.133 116.504 60.6868 116.579 59.9404C116.523 58.616 115.276 57.9284 114.196 57.4456C107.72 54.5488 100.761 52.735 93.5592 51.4627C85.818 49.949 77.9282 49.928 70.0571 51.6046C69.2756 51.9047 68.457 52.578 67.8241 51.3854C67.3588 50.3976 68.5125 50.1341 69.1265 49.6291C69.5358 49.2925 70.1126 49.1607 70.522 48.8241C73.034 48.1286 75.7135 47.6381 78.1884 47.3158C83.6777 46.9127 88.8881 47.4243 94.4334 48.3456C101.263 49.5813 107.683 51.1537 113.991 53.8456C117.601 55.3305 120.802 57.1521 122.291 61.0665C122.757 62.0543 123.929 63.4883 122.701 64.4982C119.631 67.023 117.399 70.572 114.161 72.8919C109.659 76.5949 105.323 80.5027 100.951 84.7837C95.7599 89.738 90.7735 94.524 85.08 98.8637C83.4426 100.21 81.6006 101.725 79.9633 103.072C83.9823 100.452 87.8338 97.6267 91.4807 94.9702C97.1371 91.0037 102.086 86.5909 107.575 82.4195C112.078 78.7165 116.078 74.399 120.618 70.3228C122.981 67.3518 125.976 65.5734 129.344 63.8315C129.679 64.2413 129.884 64.0729 130.089 63.9046C129.717 63.8681 129.344 63.8315 129.344 63.8315ZM88.6868 73.9706C91.515 71.9873 93.2638 69.5213 94.473 66.8138C95.645 64.4795 95.198 61.4211 93.4487 60.1188C89.0754 56.8633 84.0508 54.4858 78.3568 55.0573C74.5608 55.4382 68.8856 57.7072 67.1368 60.1732C68.6066 58.6218 70.5046 58.4314 72.4026 58.2409C73.7238 58.1822 74.2635 58.4236 74.7288 59.4113C76.7576 63.5672 75.9766 67.6356 74.0791 71.5943C74.6187 71.8357 75.3631 71.9088 75.9027 72.1502C76.8146 72.4281 77.4846 73.2476 77.2056 74.1622C76.5172 75.4135 77.15 76.6061 77.2432 77.5573C77.5039 78.7134 77.597 79.6646 76.7412 80.7111C79.3275 79.2693 82.5467 79.0201 84.8724 76.4223C82.5279 77.3226 80.4624 77.3082 79.1596 75.2961C77.5217 72.8744 79.7731 71.0229 80.9451 68.6886C79.9589 69.157 78.7493 68.0962 78.0609 69.3475C77.8191 69.889 77.9122 70.8402 77.0004 70.5623C76.0886 70.2843 76.1629 69.538 76.2372 68.7916C76.3299 65.9745 76.5901 63.3623 77.055 60.5818C77.557 57.4281 79.9015 56.5278 82.5998 57.7348C83.6792 58.2176 84.3863 58.6638 85.4657 59.1466C89.448 60.6681 89.8018 62.7754 86.825 66.2513C86.3785 66.9611 84.8526 67.1881 85.1505 67.971C85.7833 69.1636 86.8438 67.9489 87.5881 68.022C88.5371 67.9267 89.0768 68.1681 89.5793 68.7827C90.0818 69.3973 90.0075 70.1436 89.561 70.8534C89.8216 72.0095 89.3751 72.7193 88.6868 73.9706ZM56.4776 86.0696C55.1192 86.5015 55.3056 88.4039 54.2822 89.2455C53.0542 90.2554 52.738 91.5432 52.4219 92.831C52.0685 94.4921 52.8317 96.2627 53.8367 97.4918C54.6742 98.5161 55.9022 97.5062 56.8512 97.411C58.1724 97.3523 59.1585 96.8839 60.4797 96.8252C61.4287 96.7299 62.2102 96.4299 62.9917 96.1298C65.5781 94.688 66.5826 92.1488 67.7546 89.8146C68.722 87.6486 67.9216 86.2511 65.5211 85.827C63.8649 85.476 62.3391 85.703 60.9808 86.1349C60.0318 86.2301 59.0828 86.3254 58.2081 85.6743C57.5381 84.8548 56.9613 84.9866 56.4776 86.0696ZM131.074 59.6679C132.246 57.3336 135.335 56.5064 136.544 53.799C136.823 52.8843 137.27 52.1745 136.767 51.5599C136.265 50.9454 135.614 51.8235 134.832 52.1236C132.618 53.6019 130.906 55.6948 129.362 57.9925C128.711 58.8707 128.674 59.2438 129.176 59.8584C129.846 60.6778 130.293 59.968 131.074 59.6679ZM77.1708 93.3768C78.2501 93.8596 79.3295 94.3424 80.2041 94.9935C80.9113 95.4398 81.2835 95.4763 81.8975 94.9714C83.3302 93.7932 84.5953 92.4101 85.5255 90.6173C82.8088 91.481 79.3662 90.201 77.1708 93.3768ZM68.4603 78.956C66.6922 75.9562 66.7293 75.583 70.4877 71.807C68.05 71.756 65.7427 72.2831 64.0677 70.2346C64.645 73.8711 64.6827 77.2662 68.4603 78.956ZM65.3015 114.444C69.8602 112.065 73.2092 108.626 76.9304 105.223C72.4089 107.229 68.8552 110.836 65.3015 114.444ZM79.958 61.6205C79.7533 61.7888 79.7533 61.7888 79.5486 61.9571C79.2696 62.8718 78.9163 64.5328 79.2884 64.5693C80.3678 65.0521 81.4471 65.5349 82.3218 66.186C83.1965 66.8371 84.4245 65.8272 85.2803 64.7808C82.8055 65.103 80.6096 64.5106 79.958 61.6205ZM84.6658 61.5175C80.7206 59.6228 80.7206 59.6228 79.8648 60.6693C81.9675 60.3105 82.5071 60.5519 82.6191 63.2006C82.8981 62.286 83.5121 61.781 84.6658 61.5175ZM70.2464 76.1167C71.3629 76.2263 71.791 77.5873 72.8515 76.3725C73.298 75.6627 73.0002 74.8798 72.8327 74.675C71.5487 74.3605 71.065 75.4435 70.2464 76.1167ZM137.457 57.8452C135.243 59.3235 134.108 61.2846 132.47 62.6312C134.443 61.6943 136.285 60.1795 137.457 57.8452ZM95.9076 80.7087C97.4335 80.4817 97.4335 80.4817 98.9405 78.5571C97.4146 78.7842 96.931 79.8671 95.9076 80.7087ZM63.514 105.978C64.798 106.293 65.3005 106.908 65.9517 106.029C66.361 105.693 66.2307 105.115 65.691 104.873C64.9839 104.427 64.7049 105.342 63.514 105.978ZM85.1698 73.4369C83.8486 73.4956 83.5508 72.7127 83.0111 72.4713C82.6018 72.8079 82.1552 73.5177 82.4902 73.9274C83.1974 74.3737 83.8114 73.8687 85.1698 73.4369Z" fill="#060606"/>
<path d="M73.6606 64.0365C73.8658 63.8686 73.3621 63.2554 73.7352 63.2918C74.1083 63.3282 74.071 63.7006 74.0338 64.073C73.8285 64.2409 73.6606 64.0365 73.6606 64.0365Z" fill="#FBFBFB"/>
<path d="M49.3303 92.7678C49.3675 92.395 49.4047 92.0222 49.7771 92.0586C50.1495 92.0951 50.1123 92.4679 49.9075 92.6361C49.7027 92.8042 49.7027 92.8042 49.3303 92.7678Z" fill="#FBFBFB"/>
<path d="M129.377 63.626C129.75 63.6628 129.75 63.6628 130.123 63.6996C129.918 63.8676 129.713 64.0356 129.377 63.626C129.172 63.794 129.377 63.626 129.377 63.626Z" fill="#FBFBFB"/>
<path d="M103.259 59.4611C105.586 56.865 108.976 56.8207 112.664 57.5587C113.949 57.873 114.862 58.1507 115.086 59.6789C115.514 61.0389 114.862 61.9164 113.838 62.7575C111.79 64.4395 109.443 65.3392 106.705 64.506C105.625 64.0235 104.544 63.5411 103.352 64.1774C101.788 64.7772 101.359 63.4172 100.856 62.8031C100.186 61.9842 101.173 61.5161 101.787 61.0115C101.862 60.2656 102.439 60.1339 103.259 59.4611ZM105.382 60.7989C107.58 61.3909 110.076 62.7653 112.031 60.1327C109.461 59.5042 107.226 59.2851 105.382 60.7989Z" fill="#060606"/>
<path d="M49.6938 107.269C50.1036 106.933 50.5506 106.223 51.2585 106.669C52.1713 106.947 51.892 107.861 51.8548 108.234C51.8736 109.93 52.2651 111.663 52.2839 113.359C52.1912 116.174 50.1424 117.856 47.5345 117.6C45.6717 117.418 44.6656 116.19 45.0193 114.53C45.8571 111.788 47.645 108.951 49.6938 107.269ZM49.6572 111.407C49.862 111.239 49.6944 111.034 49.6944 111.034C49.6944 111.034 49.4895 111.203 49.2846 111.371C48.5955 112.621 48.1114 113.703 47.7949 114.99C49.8998 114.632 50.1418 114.091 49.6572 111.407Z" fill="#060606"/>
<path d="M49.2767 111.371C49.481 111.203 49.6853 111.035 49.6853 111.035C50.057 111.072 49.8527 111.24 49.6484 111.408C49.481 111.203 49.2767 111.371 49.2767 111.371Z" fill="#FBFBFB"/>
</g>
</svg>
