<svg width="125" height="124" viewBox="0 0 125 124" fill="none" xmlns="http://www.w3.org/2000/svg">
<g opacity="0.1">
<path d="M73.81 38.7896C73.3072 36.4018 73.0131 34.2122 72.336 32.423C71.6418 30.2356 72.7562 28.2372 72.862 26.0452L73.2449 25.6446C73.645 25.6424 74.0621 26.0384 74.0792 26.4368C74.7392 27.8275 75.2077 29.4186 75.8676 30.8094C77.2046 33.9892 78.9588 37.5652 77.7214 41.3572C82.1932 38.3437 87.7934 38.3121 92.5422 37.0899C93.1336 36.8873 93.5508 37.2834 93.3593 37.4837C92.8192 38.8813 93.8449 39.4731 94.0878 40.4678C94.8162 43.4519 93.859 44.4534 90.8332 43.8729C88.2074 43.2901 85.2501 44.3029 82.5014 45.5137L82.71 45.7117C89.7188 45.8713 94.2901 49.8298 99.0872 54.3846C104.719 59.7315 106.401 66.2961 107.492 73.0632C108.081 77.4426 106.652 81.435 104.614 85.2316C101.497 91.8233 96.5192 97.031 90.4988 101.249C88.5501 102.455 86.8271 104.258 84.8784 105.464C80.581 107.879 76.2493 109.497 71.4834 110.321C66.9089 110.944 62.6659 109.972 58.5631 107.605C55.903 106.225 53.0687 105.445 50.983 103.464C48.4973 101.486 46.7774 98.7069 44.866 96.1279C43.3889 94.3433 42.3118 92.5565 41.4091 90.171C40.9577 88.9783 40.332 88.3841 38.7148 87.9949C35.2719 87.0183 32.1776 84.8444 29.2919 82.8686C28.6662 82.2745 27.849 81.8807 27.2233 81.2866C25.1719 80.1029 23.6948 78.3183 22.6006 76.1331C20.4293 72.1611 19.058 68.1846 19.4782 63.9987C19.9327 60.6095 19.2214 58.0237 17.8844 54.8439C16.1131 50.8696 16.5162 46.2854 17.3364 42.0972C17.8251 39.5047 19.7225 37.1034 21.4284 34.9024C27.1204 27.6984 34.7237 23.0735 44.2727 21.8242C50.2387 20.9936 55.6988 22.3572 61.0188 25.1161C64.9131 27.2855 68.2502 30.454 70.4215 34.426C71.6729 35.6142 72.1414 37.2053 73.81 38.7896ZM84.9949 61.636C85.0121 62.0343 84.6292 62.4349 85.0292 62.4327C85.4292 62.4304 85.8121 62.0298 85.5864 61.4334C88.0238 57.6346 84.7241 50.6807 80.0982 50.1092C79.6982 50.1115 79.4896 49.9135 79.1067 50.3141C78.9324 50.9127 79.3324 50.9104 79.941 51.1062C82.2181 52.8863 84.3038 54.8666 84.6494 58.2513C84.4922 59.2483 84.5435 60.4433 84.9949 61.636ZM20.5273 55.825C22.9335 46.6475 33.5315 37.2245 37.5488 37.6002C36.0001 38.8042 34.6429 39.808 33.4771 40.6114C27.8738 45.2251 24.1305 51.2227 22.6472 58.602C22.1756 61.5929 21.6869 64.1854 22.2239 67.3698C23.3835 75.7303 29.1892 80.4786 35.3777 84.8263C38.8891 87.3962 43.115 87.97 47.2894 87.3487C48.8895 87.3397 50.681 87.1303 52.0896 87.3216C52.4896 87.3193 52.8896 87.317 52.9239 88.1137C52.941 88.512 52.7496 88.7123 52.3495 88.7146C50.9752 89.32 49.7923 89.7251 48.1751 89.3359C46.7665 89.1446 45.1664 89.1537 43.7578 88.9624C44.2092 90.1552 44.852 91.1476 45.4948 92.14C46.4318 95.3222 48.5347 97.7008 51.2289 99.877C55.1575 102.843 59.2604 105.21 63.9376 106.977C68.0062 108.548 72.4235 108.921 76.1637 107.505C81.8697 105.282 86.7244 101.868 90.3105 96.8669C93.8966 91.8663 96.8741 86.6698 97.9916 80.0894C99.1262 73.9074 97.8779 68.1372 95.2381 62.5741C94.3696 60.9853 93.101 59.3988 91.2582 58.4131C91.1181 59.8084 92.3524 60.5983 91.5866 61.3995C91.0294 62.3987 91.0636 63.1954 91.0979 63.992C91.115 64.3904 91.3407 64.9867 90.7664 65.5876C90.5749 65.7879 89.9663 65.5922 89.7578 65.3941C89.3406 64.9981 89.3235 64.5997 89.4978 64.0011C90.0379 62.6035 88.6666 58.627 87.4324 57.8371C87.795 61.6202 84.9062 64.2263 84.0517 67.6178C83.8774 68.2164 83.4774 68.2187 83.0774 68.2209C82.4688 68.0251 82.6431 67.4265 82.626 67.0282C82.9575 65.4326 83.289 63.837 83.2034 61.8453C83.0493 58.2603 82.3038 54.8779 78.8095 52.7063C78.3923 52.3103 78.1837 52.1122 77.5923 52.3148C75.5922 52.3261 73.9579 51.5385 73.4723 49.5491C73.2124 48.156 72.361 46.9656 71.701 45.5748C70.6239 43.788 69.1639 42.4017 67.8954 40.8152C66.6269 39.2286 64.5754 38.045 62.001 38.6572C61.4096 38.8597 60.801 38.6639 60.2095 38.8665C59.8095 38.8688 59.4095 38.871 59.3924 38.4727C59.3752 38.0744 59.5667 37.8741 59.7581 37.6738C60.3496 37.4712 61.3411 37.2664 62.7326 37.0593C60.6469 35.079 58.6126 34.2936 56.1782 33.5105C53.9525 32.9255 51.3438 32.741 48.7523 32.9549C49.7095 31.9534 50.4924 31.5505 51.4839 31.3457C56.8413 30.3193 61.9185 32.0835 66.4556 35.2453C67.6899 36.0352 68.6985 36.2287 69.8986 36.2219C69.03 34.6331 68.1615 33.0443 67.1016 31.6558C60.3589 23.7254 50.2729 21.7903 41.7839 24.4281C35.0693 26.4582 29.4146 29.8768 24.6456 35.2826C21.0253 39.4866 19.0221 44.0798 18.8618 49.6587C18.7388 51.4524 18.4416 53.8446 20.5273 55.825ZM91.3704 98.2554C92.5705 98.2486 92.7448 97.65 93.1277 97.2494C95.9994 94.2449 98.471 91.2427 100.717 87.6442C105.592 80.0464 107.458 72.2665 102.89 63.7261C101.361 60.7466 100.216 57.3664 97.7129 54.99C96.8786 54.1978 96.4443 53.4034 95.2272 53.0119C95.8871 54.4027 96.7385 55.5931 97.3985 56.9839C97.8156 57.38 97.8327 57.7783 97.4498 58.1789C97.2584 58.3792 96.8584 58.3815 96.6498 58.1834C95.8326 57.7896 95.0155 57.3958 94.4069 57.2C103.041 71.8931 102.631 85.6412 91.3704 98.2554ZM91.6192 38.8881C87.8105 38.7104 84.4703 40.1238 81.113 41.1388C78.7472 41.9491 77.6327 43.9475 76.1183 45.9482C75.944 46.5469 76.3782 47.3413 76.7954 47.7373C77.4211 48.3315 77.5783 47.3345 77.9612 46.9339C78.9013 45.5341 80.2585 44.5303 81.8414 44.1229C85.1987 43.1079 88.3304 41.4965 92.399 43.0672C91.339 41.6786 91.0791 40.2856 91.6192 38.8881ZM95.1556 56.0005C93.6442 53.4193 92.3243 50.6377 89.4557 49.0602C86.9872 47.4805 84.7614 46.8954 82.0127 48.1063C86.8984 50.0708 90.8441 53.4351 95.1556 56.0005ZM74.0076 29.4254C73.796 33.8093 74.9758 37.9861 76.3642 42.361C78.3502 37.3694 75.7789 33.3996 74.0076 29.4254ZM67.9499 37.4282C70.627 39.206 72.9384 41.7827 74.4669 44.7623C75.3385 41.7692 72.1757 38.002 67.9499 37.4282ZM92.8535 39.6779C92.3134 41.0755 92.5391 41.6719 93.5819 42.662C93.5305 41.467 93.3049 40.8707 92.8535 39.6779ZM81.7185 45.9166C81.9099 45.7163 82.1185 45.9143 82.1185 45.9143C82.1185 45.9143 82.3099 45.714 82.1014 45.516L81.7014 45.5182C81.9099 45.7163 81.7185 45.9166 81.7185 45.9166Z" fill="#020202"/>
</g>
</svg>
