<svg width="78" height="86" viewBox="0 0 78 86" fill="none" xmlns="http://www.w3.org/2000/svg">
<g opacity="0.1">
<path d="M41.7716 26.5187C39.2699 25.0917 37.5649 23.5031 36.0196 22.0203C34.634 20.6433 33.7258 18.8932 33.2428 17.195C32.4384 14.5949 33.6548 12.4141 35.6697 10.7622C36.8359 9.69678 38.3216 8.84295 40.0748 8.62568C41.4027 8.35648 42.5169 7.71611 43.6312 7.07574C47.0279 5.42001 50.4822 5.4105 53.6767 7.52607C57.0309 9.74741 60.0137 12.1822 62.2556 15.7343C65.0844 20.1346 65.7886 24.9656 65.696 29.958C65.6498 32.4543 65.7632 35.0563 65.0261 37.5545C64.0253 40.7969 63.4498 44.0912 60.7459 46.4354C59.8972 47.022 60.0068 48.2432 59.6373 49.147C58.1611 53.4529 55.0319 55.7452 51.1041 57.5086C50.4671 57.7759 50.2554 58.0952 50.3632 58.6259C50.5248 59.4221 50.367 60.0068 49.7839 60.5395C45.9137 63.9491 41.6702 66.8818 36.3049 67.6932C35.2426 67.9085 34.2862 67.9643 33.2758 67.7546C31.8402 67.493 31.1512 68.1853 30.1967 68.9315C27.9181 71.3276 25.372 73.0872 22.5065 74.6353C21.7636 75.0622 20.9669 75.2237 20.2222 74.9602C17.4568 74.2774 15.9559 69.608 17.7033 67.3195C18.2326 66.5214 18.4443 66.2022 17.4859 65.5675C16.847 65.1444 16.2601 64.2962 15.8329 63.5539C14.3377 60.9557 14.5437 58.5652 16.5047 56.6479C18.7314 54.6767 22.026 54.5614 24.2102 56.4674C25.7016 57.6848 27.2988 58.7425 28.7363 59.6945C29.6947 60.3292 30.3856 60.3273 31.1265 59.21C33.1376 56.1772 34.989 53.0387 37.2138 50.3772C38.1144 49.3656 38.7495 48.4079 40.0235 47.8733C41.6689 47.1252 42.5157 45.8483 43.3086 44.306C44.3652 42.0194 44.9426 39.4154 46.744 37.3923C47.0615 36.9135 46.4727 35.375 46.1513 34.473C45.5625 32.9345 44.3367 31.6632 44.0134 30.0708C43.9019 28.1592 42.9955 27.0995 41.7716 26.5187ZM63.8795 26.4579C63.2849 22.8481 62.7443 19.5037 60.7699 16.5882C59.2227 14.415 57.2521 12.8802 55.3874 11.1859C51.8697 7.47793 47.9881 6.74509 43.531 9.30659C42.2571 9.84118 40.9831 10.3758 39.6552 10.645C37.7962 11.0219 36.2585 12.3007 35.2539 14.1623C33.9856 16.7681 35.4789 18.6759 36.9722 20.5837C38.4655 22.4915 40.5419 23.8667 42.6184 25.2418C43.417 25.7707 43.7884 25.5572 44.3177 24.7591C45.0567 22.9514 46.4885 21.8321 48.3475 21.4553C51.6403 20.6496 54.6192 21.7035 57.6502 22.3325C60.202 22.6441 62.0667 24.3385 63.8795 26.4579ZM59.3571 24.6115C56.6957 23.0787 53.1874 22.8228 49.7331 22.8323C47.8202 22.9438 46.2286 23.9572 45.5435 26.0303C45.1759 27.6246 45.4452 28.9516 46.1399 30.3305C47.2079 32.1864 48.3818 33.8827 48.2816 36.1135C48.2835 36.8039 48.5491 36.7501 49.1341 36.9078C53.8644 37.0541 56.7432 40.3389 59.3565 43.6776C60.1032 44.6315 60.3149 44.3123 60.7383 43.6738C61.0558 43.1949 61.3734 42.7161 61.5312 42.1314C62.5878 39.8449 63.0593 37.4005 63.5309 34.9562C64.1045 30.9715 63.4041 27.5213 59.3571 24.6115ZM43.1584 47.6522C45.5042 50.3543 48.3273 52.6834 50.0361 55.6527C51.9991 54.4258 54.4951 53.7817 56.1367 51.6528C58.2017 48.8854 60.1051 45.3219 56.5892 42.3044C54.7784 40.8754 53.4448 39.0734 50.9989 38.6021C49.4035 38.2348 48.0237 38.929 47.4425 40.1521C46.5976 42.1194 45.593 43.981 44.7481 45.9484C44.0591 46.6407 43.7954 47.3849 43.1584 47.6522ZM33.2701 65.6834C34.4921 65.5738 35.4486 65.518 36.405 65.4623C40.2828 64.8143 43.4659 62.7874 46.5951 60.4951C49.0353 58.8951 49.2432 57.1951 47.3766 54.8103C46.0969 53.2737 44.8172 51.7371 43.2719 50.2543C42.0461 48.983 40.9299 48.933 39.552 50.3176C36.85 53.3523 34.8927 56.6504 32.8296 60.1081C32.5121 60.587 31.3997 61.9178 33.2606 62.2313C34.2709 62.441 34.4326 63.2372 34.063 64.141C34.0649 64.8314 33.6935 65.0449 33.2701 65.6834ZM24.1982 71.391C22.9723 70.1198 22.9723 70.1198 25.7282 67.3505C25.0373 67.3524 24.2406 67.5139 23.5498 67.5158C22.8589 67.5177 22.2739 67.36 22.1661 66.8292C22.0584 66.2984 22.5356 65.9253 23.0129 65.5523C24.1272 64.9119 24.9759 64.3254 26.196 63.5254C24.9721 62.9445 23.854 62.2041 22.7898 61.729C22.3106 61.4117 21.8314 61.0944 22.2548 60.4559C22.5185 59.7117 23.1035 59.8694 23.8483 60.1329C24.4333 60.2906 24.9663 60.8733 25.5514 61.031C26.7753 61.6119 27.8395 62.0869 29.6985 61.71C26.8254 60.4964 24.9606 58.8021 22.8842 57.427C20.9675 56.1576 18.3657 56.9614 17.361 58.823C16.4623 60.525 17.2127 62.8597 19.6086 64.4464C21.2059 65.5041 21.3136 66.0349 20.0954 67.5253C18.6655 69.335 18.6154 70.4504 20.2146 72.1986C20.9073 72.8871 21.6001 73.5756 22.6605 72.6698C22.8183 72.0852 23.4553 71.8179 24.1982 71.391Z" fill="#0A0A0A"/>
</g>
</svg>
