<svg width="116" height="116" viewBox="0 0 116 116" fill="none" xmlns="http://www.w3.org/2000/svg">
<g opacity="0.1">
<path d="M69.1624 36.3131C68.7943 34.0716 68.6124 32.0172 68.056 30.3354C67.5006 28.2802 68.6262 26.4158 68.8181 24.3624L69.1927 23.9899C69.5663 23.9908 69.9391 24.3651 69.9382 24.7385C70.4955 26.0469 70.8655 27.5416 71.4228 28.8499C72.5366 31.8401 74.023 35.2047 72.7065 38.7491C77.0106 35.9589 82.2422 35.9717 86.7291 34.8623C87.2901 34.677 87.6628 35.0514 87.4755 35.2376C86.9118 36.5432 87.8446 37.1057 88.0292 38.0397C88.5829 40.8418 87.6464 41.7731 84.8451 41.2061C82.4176 40.64 79.6127 41.5667 76.9942 42.6806L77.1806 42.8678C83.7195 43.0705 87.8208 46.8149 92.1076 51.1199C97.14 56.1735 98.4327 62.3384 99.1645 68.6885C99.5282 72.7972 98.0243 76.5278 95.9603 80.0704C92.769 86.2242 87.8992 91.0669 82.0975 94.9738C80.2264 96.0895 78.5407 97.7658 76.6696 98.8815C72.5536 101.112 68.4394 102.596 63.9534 103.332C59.6547 103.881 55.7334 102.938 52.002 100.688C49.5763 99.3754 46.9624 98.6221 45.0986 96.7504C42.8611 94.8777 41.3727 92.26 39.6971 89.8286C38.3934 88.145 37.4633 86.4622 36.7214 84.2198C36.3505 83.0986 35.7913 82.5371 34.2975 82.16C31.1235 81.2187 28.326 79.1579 25.7148 77.2844C25.1556 76.7229 24.4092 76.3476 23.85 75.7861C21.9844 74.6612 20.6806 72.9776 19.7514 70.9214C17.8922 67.1825 16.7803 63.4455 17.3504 59.5258C17.9187 56.353 17.3642 53.9243 16.2505 50.9342C14.7649 47.1962 15.3359 42.9031 16.2798 38.9844C16.8462 36.5584 18.7201 34.3224 20.4067 32.2727C26.0284 25.5646 33.3257 21.288 42.2968 20.1897C47.9038 19.4565 52.9453 20.7759 57.7968 23.4018C61.3417 25.4644 64.3238 28.4591 66.1831 32.198C67.3014 33.3211 67.6714 34.8157 69.1624 36.3131ZM78.6387 57.8087C78.6377 58.1821 78.2631 58.5546 78.6368 58.5556C79.0105 58.5565 79.3851 58.184 79.1996 57.6233C81.6373 54.0817 78.8507 47.5398 74.5547 46.9691C74.181 46.9682 73.9947 46.781 73.6201 47.1536C73.4318 47.7132 73.8055 47.7142 74.3656 47.9023C76.4167 49.5877 78.2805 51.4595 78.4596 54.6341C78.2705 55.5672 78.2677 56.6875 78.6387 57.8087ZM18.6771 51.8737C21.3139 43.2912 31.6116 34.5407 35.3475 34.9233C33.8501 36.0399 32.5399 36.9703 31.417 37.7144C25.9881 41.9956 22.2376 47.5879 20.5391 54.4923C19.9717 57.2916 19.4052 59.7176 19.7716 62.7059C20.4997 70.5498 25.7203 75.0438 31.3154 79.1653C34.4857 81.6003 38.408 82.1701 42.333 81.6195C43.8278 81.6232 45.5098 81.4406 46.8172 81.6305C47.1909 81.6314 47.5646 81.6324 47.5627 82.3792C47.5618 82.7526 47.3745 82.9389 47.0008 82.938C45.6916 83.4949 44.5696 83.8656 43.0758 83.4885C41.7684 83.2986 40.2737 83.295 38.9663 83.105C39.3372 84.2262 39.8954 85.1612 40.4537 86.0961C41.1937 89.0854 43.0566 91.3306 45.4805 93.3904C49.0236 96.1998 52.7549 98.4496 57.0481 100.141C60.7813 101.643 64.8908 102.027 68.444 100.729C73.8674 98.688 78.5462 95.5252 82.1076 90.866C85.669 86.2068 88.6704 81.3596 89.9933 75.2011C91.3154 69.4162 90.3945 63.9991 88.1652 58.7656C87.4215 57.27 86.3041 55.7736 84.6249 54.8359C84.4348 56.1424 85.554 56.892 84.8048 57.6371C84.242 58.5693 84.2402 59.3161 84.2384 60.063C84.2375 60.4364 84.4229 60.997 83.861 61.5558C83.6737 61.7421 83.1137 61.554 82.9273 61.3668C82.5545 60.9925 82.5554 60.619 82.7437 60.0593C83.3074 58.7537 82.1955 55.0167 81.0763 54.267C81.2544 57.8151 78.4459 60.2355 77.5039 63.4074C77.3157 63.9671 76.942 63.9662 76.5683 63.9653C76.0082 63.7772 76.1965 63.2175 76.1974 62.8441C76.5747 61.3513 76.9521 59.8584 76.9566 57.9913C76.9649 54.6304 76.4121 51.4549 73.2409 49.3932C72.8681 49.0189 72.6817 48.8317 72.1208 49.0171C70.2524 49.0125 68.7595 48.262 68.3904 46.3939C68.2067 45.0864 67.4621 43.9643 66.9048 42.6559C65.9747 40.9732 64.67 39.663 63.5527 38.1665C62.4353 36.67 60.5696 35.5452 58.1393 36.0994C57.5783 36.2847 57.0183 36.0966 56.4573 36.282C56.0836 36.2811 55.7099 36.2801 55.7108 35.9067C55.7118 35.5333 55.8991 35.347 56.0864 35.1608C56.6473 34.9754 57.582 34.791 58.8903 34.6075C57.0265 32.7357 55.1599 31.9843 52.9197 31.232C50.8658 30.6668 48.4373 30.4741 46.008 30.6549C46.9445 29.7236 47.6927 29.352 48.6274 29.1676C53.6744 28.2463 58.3413 29.9382 62.4444 32.9357C63.5636 33.6853 64.4974 33.8743 65.6184 33.8771C64.8747 32.3815 64.131 30.886 63.2 29.5767C57.2394 22.0934 47.902 20.2034 39.8619 22.611C33.5048 24.4626 28.0786 27.6235 23.3953 32.6534C19.8357 36.5658 17.7699 40.8552 17.3834 46.0823C17.1924 47.7623 16.8133 50.002 18.6771 51.8737ZM83.0386 92.1753C84.1596 92.1781 84.3479 91.6184 84.7225 91.2459C87.5319 88.452 89.9677 85.6572 92.218 82.3018C97.0933 75.2185 99.1664 67.9416 95.2624 59.9033C93.9614 57.0993 93.035 53.9229 90.7984 51.6768C90.0529 50.9281 89.681 50.1803 88.5609 49.8042C89.1182 51.1125 89.8628 52.2347 90.4201 53.5431C90.7929 53.9174 90.792 54.2908 90.4174 54.6633C90.2301 54.8496 89.8564 54.8487 89.67 54.6615C88.9236 54.2863 88.1771 53.911 87.6171 53.7229C95.0568 67.5582 94.091 80.4392 83.0386 92.1753ZM85.7908 36.5405C82.2413 36.3451 79.0618 37.6443 75.8832 38.5701C73.6393 39.3115 72.5137 41.1759 71.0144 43.0394C70.8261 43.5991 71.198 44.3469 71.5708 44.7212C72.1299 45.2827 72.319 44.3496 72.6936 43.9771C73.631 42.6724 74.9412 41.742 76.4369 41.3722C79.6154 40.4464 82.6085 38.96 86.3417 40.4629C85.4107 39.1536 85.227 37.8461 85.7908 36.5405ZM88.3672 52.6044C87.0652 50.1739 85.9506 47.5572 83.3385 46.057C81.1001 44.5578 79.0462 43.9927 76.4277 45.1065C80.9073 46.9847 84.4495 50.1675 88.3672 52.6044ZM69.7445 27.5388C69.3607 31.6456 70.2853 35.569 71.3963 39.6794C73.463 35.0166 71.23 31.2768 69.7445 27.5388ZM63.7473 34.9928C66.1721 36.6792 68.2214 39.1115 69.5224 41.9155C70.4635 39.117 67.6695 35.5626 63.7473 34.9928ZM86.91 37.2901C86.3463 38.5957 86.5317 39.1564 87.4636 40.0922C87.4664 38.9719 87.2809 38.4113 86.91 37.2901ZM76.2459 43.0522C76.4332 42.866 76.6196 43.0531 76.6196 43.0531C76.6196 43.0531 76.8069 42.8669 76.6205 42.6797L76.2468 42.6788C76.4332 42.866 76.2459 43.0522 76.2459 43.0522Z" fill="#020202"/>
</g>
</svg>
